<?xml version="1.0" standalone="no"?>
<!DOCTYPE svg PUBLIC "-//W3C//DTD SVG 1.1//EN" "http://www.w3.org/Graphics/SVG/1.1/DTD/svg11.dtd" >
<!--
2013-9-30: Created.
-->
<svg>
<metadata>
Created by iconfont
</metadata>
<defs>

<font id="iconfont" horiz-adv-x="1024" >
  <font-face
    font-family="iconfont"
    font-weight="500"
    font-stretch="normal"
    units-per-em="1024"
    ascent="896"
    descent="-128"
  />
    <missing-glyph />
    
    <glyph glyph-name="x" unicode="x" horiz-adv-x="1001"
d="M281 543q-27 -1 -53 -1h-83q-18 0 -36.5 -6t-32.5 -18.5t-23 -32t-9 -45.5v-76h912v41q0 16 -0.5 30t-0.5 18q0 13 -5 29t-17 29.5t-31.5 22.5t-49.5 9h-133v-97h-438v97zM955 310v-52q0 -23 0.5 -52t0.5 -58t-10.5 -47.5t-26 -30t-33 -16t-31.5 -4.5q-14 -1 -29.5 -0.5
t-29.5 0.5h-32l-45 128h-439l-44 -128h-29h-34q-20 0 -45 1q-25 0 -41 9.5t-25.5 23t-13.5 29.5t-4 30v167h911zM163 247q-12 0 -21 -8.5t-9 -21.5t9 -21.5t21 -8.5q13 0 22 8.5t9 21.5t-9 21.5t-22 8.5zM316 123q-8 -26 -14 -48q-5 -19 -10.5 -37t-7.5 -25t-3 -15t1 -14.5
t9.5 -10.5t21.5 -4h37h67h81h80h64h36q23 0 34 12t2 38q-5 13 -9.5 30.5t-9.5 34.5q-5 19 -11 39h-368zM336 498v228q0 11 2.5 23t10 21.5t20.5 15.5t34 6h188q31 0 51.5 -14.5t20.5 -52.5v-227h-327z" />
    

    
    <glyph glyph-name="gongzuo" unicode="&#58880;" d="M879.9405 102.5848H150.74697417744895c-40.2803 0-72.9196 33.2634-72.9196 74.2786V622.3394538502895c0 40.9552 32.6392 74.1687 72.9196 74.1687h729.1945031015243c40.2763 0 72.9205-33.2135 72.9205-74.1687v-445.47596729417455C952.861 135.8483 920.2168 102.5848 879.9405 102.5848zM879.9405 548.0558c0 41.0152-32.6432 74.2836-72.9196 74.2836H223.66652442394195c-40.2803 0-72.9196-33.2684-72.9196-74.2836v-296.9646579619018c0-40.9552 32.6392-74.2277 72.9196-74.2277h583.3554026085384c40.2763 0 72.9196 33.2724 72.9196 74.2277V548.0558181552907zM369.5056 28.3522h291.67720162256643v-74.22367634743644h145.83910049298595v-74.2836356949988H223.66652442394195v74.2836356949988h145.83910049298595V28.352177223842205z"  horiz-adv-x="1000" />

    
    <glyph glyph-name="cai" unicode="&#58906;" d="M915.202635 258.183616l-86.646973 276.978289c-30.014831 100.621698-119.394145 99.260701-119.394145 99.260701l-449.587982-0.685615c-102.140479 0.685615-101.99721-100.621698-101.99721-100.621698l0-278.676977c7.511383-103.353926 101.99721-101.307314 101.99721-101.307314l122.116254 0 158.967057-240.139266c35.488725-48.2714 85.61339-17.733896 85.61339-17.733896 50.163552 19.262716 38.549562 78.794577 38.549562 78.794577l-25.921434 178.39297 195.797393 0C939.763015 161.992833 915.202635 258.183616 915.202635 258.183616zM834.358052 203.099043l-256.185226 0 36.154925-227.000014c0 0 9.109854-31.129998-7.329227-39.010479-17.549415-8.4126-32.919095 17.85874-32.919095 17.85874l-171.943124 247.762897-142.951643 0c0 0-48.731887 4.819772-51.290259 51.380204L207.894403 534.31256c0 0-3.070047 42.467207 51.167457 49.968042l92.275393 0-0.685644-381.181559 52.190807 0L402.842416 585.303908l304.958047 0c0 0 54.493342-2.302439 71.122766-60.630892l88.345732-282.176684C867.268961 242.496331 874.432405 206.854577 834.358052 203.099043z"  horiz-adv-x="1024" />

    
    <glyph glyph-name="shezhi" unicode="&#59008;" d="M953.699 597.155l-104.615-104.61c-0.613-0.613-1.4-1.072-2.32-1.313-0.875-0.24-1.795-0.24-2.626 0l-98.837 26.481c-0.832 0.219-1.619 0.657-2.276 1.313s-1.094 1.466-1.313 2.298l-26.482 98.81c-0.263 0.832-0.263 1.751 0 2.648 0.219 0.896 0.701 1.684 1.313 2.297l104.615 104.588c-62.987 17.004-133.066 0.853-182.483-48.585-49.726-49.722-65.789-120.323-48.281-183.571l-287.886-287.897c-63.294 17.508-133.854 1.444-183.622-48.279-49.419-49.439-65.57-119.492-48.587-182.455l104.615 104.589c0.613 0.614 1.401 1.073 2.32 1.313 0.875 0.24 1.795 0.219 2.626 0l98.837-26.458c0.832-0.219 1.62-0.678 2.276-1.335s1.094-1.445 1.313-2.298l26.482-98.81c0.219-0.832 0.262-1.751 0-2.648-0.219-0.897-0.701-1.684-1.313-2.298l-104.615-104.621c62.987-16.983 133.066-0.809 182.484 48.607 51.913 51.922 67.146 126.571 45.785 191.854l282.152 282.119c65.307-21.338 139.938-6.106 191.852 45.805 49.416 49.416 65.569 119.491 48.586 182.454z"  horiz-adv-x="1024" />

    
    <glyph glyph-name="shanchu" unicode="&#58908;" d="M731.918024 631.466274 293.285433 631.466274c-40.383364 0-73.105944-32.720216-73.105944-73.102948l0-24.367991 584.843455 0 0 24.367991C805.023968 598.746058 772.302411 631.466274 731.918024 631.466274M604.221575 680.201232l10.756412-76.909647L410.22547 603.291584l10.755389 76.909647L604.221575 680.201232M610.076149 728.936189l-194.947818 0c-20.108791 0-38.813548-16.276708-41.621615-36.217876l-14.254216-101.968369c-2.78453-19.916609 11.399075-36.19434 31.507865-36.19434l243.684773 0c20.107767 0 34.292396 16.276708 31.484328 36.217876l-14.255239 101.968369C648.887651 712.659481 630.183917 728.936189 610.076149 728.936189M744.102007 485.261401 281.100427 485.261401c-26.795347 0-46.761893-21.845541-44.334511-48.544623L276.699007-2.278511c2.402821-26.700105 26.344051-48.544623 53.139398-48.544623l365.527671 0c26.795347 0 50.735553 21.845541 53.139398 48.544623l39.932067 438.995289C790.8639 463.41586 770.897354 485.261401 744.102007 485.261401M415.128331 46.646781l-73.105944 0-24.368989 341.144704 97.473909 0L415.127308 46.646781zM561.339195 46.646781l-97.473909 0L463.865286 387.791485l97.473909 0L561.339195 46.646781zM683.18107 46.646781l-73.105944 0L610.075126 387.791485l97.473909 0L683.18107 46.646781z"  horiz-adv-x="1024" />

    
    <glyph glyph-name="changyong" unicode="&#59204;" d="M959.018521-118.937464 698.891016 141.249393l216.811977 216.810954L771.162016 502.629977 626.563734 358.060347 395.27402 589.320385l57.851593 57.850569-101.109816 101.195773L62.819233 459.25612l101.224426-101.195773 57.793264 57.821917 231.28869-231.259014-144.542001-144.568606 144.542001-144.542001 216.811977 216.783325L930.178683-147.861214 959.018521-118.937464zM164.044682 415.882264l-43.373857 43.373857 231.344972 231.260038 43.317575-43.344181-28.953426-28.924773 0 0L192.939779 444.807037l0 0L164.044682 415.882264zM250.791371 444.807037l21.659299 21.687952 93.929276 93.929276 231.287667-231.261061-57.794287-57.82294-57.793264-57.81987L250.791371 444.807037zM366.378923 40.054643l115.700115 115.671463 0-0.027629 86.690408 86.718037 202.391547 202.391547 86.748736-86.74669L453.125613-46.695117 366.378923 40.054643z"  horiz-adv-x="1024" />

    
    <glyph glyph-name="icon13" unicode="&#58893;" d="M950.257 262.868c0 83.046-62.152 151.845-142.384 162.338v17.796c0.735 5.539 1.119 11.186 1.119 16.922 0 3.204-0.492 6.293-1.403 9.197-4.348 66.542-59.862 119.35-127.49 119.35h-48.187c-16.954 0-30.699-13.745-30.699-30.699s13.745-30.699 30.699-30.699h48.187c36.6 0 66.375-29.771 66.375-66.365v-12.88c-5.712-31.046-32.969-54.649-65.655-54.649h-360.555c-32.686 0-59.943 23.603-65.655 54.649v12.88c0 36.593 29.776 66.365 66.375 66.365h37.904c16.954 0 30.699 13.745 30.699 30.699s-13.745 30.699-30.699 30.699h-37.904c-67.626 0-123.142-52.809-127.489-119.35-0.911-2.904-1.404-5.992-1.404-9.197 0-5.736 0.385-11.383 1.119-16.922v-341.43c0-70.44 57.319-127.749 127.773-127.749h359.117c70.106 0 127.196 56.743 127.761 126.704 80.236 10.488 142.395 79.289 142.395 162.34zM680.1 35.222h-359.116c-36.6 0-66.375 29.765-66.375 66.35v248.339c19.215-11.506 41.675-18.13 65.655-18.13h360.555c23.981 0 46.441 6.625 65.655 18.13v-248.339c0.001-36.585-29.775-66.35-66.375-66.35zM807.874 162.783v200.169c46.214-9.846 80.985-50.978 80.985-100.084s-34.772-90.238-80.985-100.084zM429.842 470.263c-4.932-10.171-0.686-22.413 9.485-27.345 2.878-1.396 5.919-2.056 8.915-2.056 7.596 0 14.893 4.248 18.43 11.541 1.266 2.609 30.614 64.416-1.863 109.068-6.844 9.408-8.967 19.679-6.494 31.402 2.095 9.924 6.796 17.029 6.843 17.098l-0.101-0.147-33.599 23.378c-0.884-1.271-8.751-12.901-12.734-29.825-5.6-23.792-1.109-46.608 12.983-65.983 14.936-20.535 3.698-55.465-1.863-67.132zM532.173 470.263c-4.931-10.171-0.685-22.413 9.486-27.345 2.878-1.396 5.919-2.056 8.915-2.056 7.596 0 14.894 4.248 18.431 11.541 1.265 2.609 30.614 64.416-1.864 109.068-6.843 9.408-8.967 19.679-6.493 31.402 2.095 9.924 6.796 17.029 6.843 17.098l-0.101-0.147-33.599 23.378c-0.884-1.271-8.752-12.901-12.734-29.825-5.6-23.792-1.109-46.608 12.984-65.983 14.934-20.535 3.695-55.465-1.867-67.132z"  horiz-adv-x="1024" />

    
    <glyph glyph-name="huodong" unicode="&#59346;" d="M972.2368 300.3584C972.2368 554.2592 765.6704 760.8 511.7696 760.8c-4.6592 0-9.2672-0.0768-13.8752-0.2304-14.5664-0.4352-29.3376-1.5616-43.9808-3.4048l0.2304 1.4592-5.0688-0.7168C246.3744 730.1312 85.3248 569.7472 56.4224 367.4304l-0.5376-0.0256-0.4096-3.0976c-2.2272-16.4096-3.6096-32.9984-4.1216-49.28l0.4864-4.3264 0.0256 0c-0.0512-2.944-0.1024-5.9136-0.1024-8.8576 0-253.9008 206.5664-460.4672 460.4672-460.4672 1.9712 0 3.9936 0.0256 5.9648 0.0512l-0.1792-0.6144 4.992 0.1024c16.2816 0.384 32.896 1.7408 49.3056 3.968l2.8416 0.384 0.0768 0.5376c76.928 10.752 150.9632 41.728 214.784 90.1632 4.0192 4.5824 6.144 10.0352 6.144 15.744 0 12.5952-10.2656 26.7264-24.0384 26.7264-6.2464 0-12.0064-2.2784-16.4096-6.4l-0.7424-0.5376c-51.9168-38.2208-112.4096-63.872-175.2832-74.368 0.1792 4.7872 0.2816 9.5744 0.2816 14.4128 0 253.696-206.3872 460.0832-460.0832 460.0832-2.6368 0-5.248-0.0256-7.8592-0.0768C141.8752 539.36 273.408 670.3808 441.4208 699.5392 441.3696 697.056 441.344 694.5728 441.344 692.0896c0-253.6704 206.3872-460.0832 460.0832-460.0832 4.3264 0 8.6528 0.0768 12.9536 0.2048-6.8864-44.7744-20.8384-87.2704-41.5488-126.336l-0.384-1.4848c-0.5632-1.8944-1.2288-4.0448-1.2288-6.5024 0-13.7728 14.1056-24.0384 26.7264-24.0384 5.5808 0 10.88 1.9968 15.0272 5.4528l0-4.1216 5.1456 9.9328c0.7168 1.152 1.3568 2.3808 1.8944 3.6608l0.1536 0.2816c24.7552 47.8464 40.8832 98.5088 47.9744 150.5792 2.0736 15.3088 3.4048 30.7968 3.8912 46.1568l0.0768 2.5344c0 0.1536 0 0.3328 0 0.4864l0.0256 0.128c0 0.256 0 0.512 0 0.768l0.1024 3.84-0.0256 0C972.2112 295.776 972.2368 298.08 972.2368 300.3584zM919.296 297.1584c0-3.1488-0.0256-6.272-0.1024-9.4208-5.888-0.256-11.8016-0.384-17.7664-0.384-223.1552 0-404.7104 181.5552-404.7104 404.7104 0 0.4864 0 0.9472 0 1.4336l0.4352 0c0 3.4816 0.0512 6.9632 0.1536 10.4448 4.9408 0.1792 9.9072 0.2816 14.8992 0.2816C736.6912 704.2496 919.296 521.6192 919.296 297.1584zM105.6 298.6176c0 5.8112 0.128 11.5968 0.384 17.3568 4.608 0.1792 9.2416 0.256 13.9008 0.256 223.1552 0 404.6848-181.5808 404.6848-404.736 0-6.6048-0.1536-13.2096-0.4608-19.7888-3.7888-0.128-7.6032-0.1792-11.4176-0.1792C288.2048-108.4736 105.6 74.1568 105.6 298.6176zM963.456 288.224 963.456 288.224C963.456 288.224 963.456 288.224 963.456 288.224z"  horiz-adv-x="1024" />

    
    <glyph glyph-name="yule" unicode="&#58911;" d="M512-210.528c-281.472 0-510.528 228.992-510.528 510.528S230.528 810.528 512 810.528 1022.528 581.472 1022.528 300 793.472-210.528 512-210.528zM512 749.472c-247.872 0-449.472-201.6-449.472-449.472 0-247.872 201.6-449.472 449.472-449.472 247.872 0 449.472 201.6 449.472 449.472C961.472 547.872 759.872 749.472 512 749.472zM285.888 296.416l161.344 67.008c11.968 4.992 19.712 16.64 19.712 29.568S459.2 417.568 447.232 422.56L285.76 489.568C269.568 496.224 250.752 488.544 243.968 472.224 237.184 455.968 244.928 437.216 261.312 430.432l90.24-37.44L261.312 355.552C245.056 348.768 237.312 330.08 244.032 313.696c5.12-12.288 17.024-19.712 29.568-19.712C277.696 293.984 281.856 294.752 285.888 296.416zM777.984 313.376c6.912 16.256-0.576 35.072-16.832 42.048l-87.616 37.568 87.808 37.632c16.256 6.912 23.744 25.728 16.832 41.984-6.976 16.256-25.6 23.808-42.048 16.832L579.712 422.432C567.936 417.376 560.32 405.792 560.32 392.992c0-12.8 7.616-24.384 19.392-29.376l156.224-67.008c4.096-1.792 8.384-2.624 12.608-2.624C760.96 293.984 772.736 301.28 777.984 313.376zM510.976-18.976C302.656-18.976 256 141.984 256 204L256 236l514.432 0-3.008-34.304C761.792 125.344 700.608-18.976 510.976-18.976zM326.72 172C338.304 125.536 377.6 45.024 512 45.024c126.656 0 170.112 79.488 184.832 126.976L326.72 172z"  horiz-adv-x="1024" />

    
    <glyph glyph-name="huidingbu" unicode="&#58884;" d="M825.568 256.672l-287.392 289.28C531.808 552.352 523.488 555.424 515.2 555.36 514.08 555.456 513.12 556 512 556c-4.672 0-9.024-1.088-13.024-2.88-4.032-1.536-7.872-3.872-11.136-7.136l-259.328-258.88c-12.512-12.48-12.544-32.736-0.032-45.248 6.24-6.272 14.432-9.408 22.656-9.408 8.192 0 16.352 3.136 22.624 9.344L480 447.712 480-116c0-17.696 14.336-32 32-32s32 14.304 32 32L544 449.28l236.192-237.728c6.24-6.272 14.496-9.44 22.688-9.44s16.32 3.104 22.56 9.312C838.016 223.872 838.048 244.16 825.568 256.672zM864 620 160 620C142.336 620 128 634.336 128 652s14.336 32 32 32l704 0c17.696 0 32-14.336 32-32S881.696 620 864 620z"  horiz-adv-x="1024" />

    
    <glyph glyph-name="gongzuo1" unicode="&#58919;" d="M846.287407 523.451259l-66.981926 74.789926c-4.074667 4.599704-9.912889 7.230815-16.074667 7.230815L527.947852 605.472 527.947852 628.284444c0 11.136-9.624889 20.149333-21.489778 20.149333-11.881481 0-21.50637-9.013333-21.50637-20.149333l0-22.81363L313.102222 605.470815c-11.882667 0-21.50637-9.607111-21.50637-21.50637L291.595852 433.724444c0-11.881481 9.624889-21.489778 21.50637-21.489778l171.849481 0 0-43.063704L250.772148 369.170963c-6.145185 0-12.001185-2.614519-16.074667-7.214222l-66.964148-76.13037c-7.214222-8.148148-7.214222-20.404148 0-28.551111l66.964148-75.418074c4.091259-4.600889 9.929481-6.551704 16.074667-6.551704l234.179556 0 0-194.610963c0-11.119407 9.624889-20.149333 21.50637-20.149333 11.864889 0 21.489778 9.029926 21.489778 20.149333L527.947852 175.304296l172.29037 0c11.881481 0 21.490963 9.608296 21.490963 21.490963L721.729185 347.68c0 11.881481-9.608296 21.489778-21.490963 21.489778l-172.29037 0 0 43.063704 235.284148 0c6.160593 0 12 2.614519 16.074667 7.214222l66.981926 75.451259C853.502815 503.047111 853.502815 515.303111 846.287407 523.451259zM678.733037 218.300444 260.430222 218.300444l-47.885037 53.249185 47.885037 54.624 418.30163 0L678.731852 218.300444zM753.572741 455.230815 334.608593 455.230815l0 107.245037 418.964148 0 47.883852-53.298963L753.572741 455.230815z"  horiz-adv-x="1024" />

    
    <glyph glyph-name="fanhui" unicode="&#58915;" d="M917.184845 238.670553c0-115.925184-42.380172-219.875142-108.844777-299.808169C646.029673-256.303434 349.370511-206.245575 349.370511-206.245575c-11.370789 0-22.57794 2.260249-33.609181 6.774609-56.859059 23.277492-59.697154 73.864106-59.697154 79.050405 0 94.84044 124.743222 84.698981 91.29052 84.698981l155.501012-1.133193c290.256829 0 257.836068 357.950763 257.836068 276.660564 0 292.096733-297.948833 274.406452-237.76997 274.406452l-159.50605 0 0-89.199023c0-12.80978-4.52152-22.2118-13.543082-28.239812-9.034858-6.020852-23.583291-2.254112-43.649389 11.296129 49.921835-35.156582-90.46824 61.563649-192.60693 160.91845-7.358592 7.147908-11.0384 15.99356-11.0384 26.535932 0 9.028722 4.181971 18.444038 12.537732 28.232653C79.682968 582.312204 201.112522 709.526358 308.240123 799.913802c16.054924 12.802621 29.087661 15.430032 39.114574 7.901665 10.040208-7.515071 15.396282-18.817337 16.061061-33.87407l0-90.339375 159.50605 0c49.996494 0 274.867706-38.394567 365.669358-282.315277C907.653959 350.095695 917.184845 295.896775 917.184845 238.670553L917.184845 238.670553 917.184845 238.670553zM917.184845 238.670553"  horiz-adv-x="1024" />

    
    <glyph glyph-name="cai1" unicode="&#58904;" d="M845.738667 161.691733l-166.1952 0c12.0832-28.194133 25.9584-101.051733 17.8688-167.338667-6.434133-52.906667-37.205333-93.457067-82.261333-108.765867-33.4336-11.349333-68.642133-5.853867-87.637333 13.6192-22.6304 23.159467-33.245867 66.8672-44.4928 113.066667-7.355733 30.225067-14.967467 61.5424-24.4224 77.6704-27.323733 46.574933-84.497067 67.857067-96 71.7312l-78.830933 0c-15.496533 0-28.091733 12.612267-28.091733 28.16L255.675733 584.501333c0 15.598933 12.612267 28.177067 28.091733 28.177067l75.9808 0c23.466667 12.765867 110.933333 56.405333 212.189867 56.405333l189.525333 0c31.197867 0 84.9408-12.117333 105.079467-45.568 20.258133-33.860267 63.112533-342.3744 63.112533-376.558933C929.672533 199.835733 883.729067 161.691733 845.738667 161.691733zM818.363733 594.4512c-4.1984 7.0656-32 18.2272-56.900267 18.2272L571.938133 612.6784c-100.352 0-188.842667-56.3712-189.713067-56.3712l-0.017067 0c-4.232533 0-8.891733 0-14.165333 0l-56.2176 0 0-338.261333 56.183467 0c2.286933 0 4.334933-0.785067 6.468267-1.3312 0.443733-0.1024 0.8704 0.017067 1.314133-0.1024 0.221867-0.0512 0.750933-0.2048 1.4848-0.443733 0.733867-0.273067 1.536-0.375467 2.218667-0.733867 17.066667-5.666133 89.992533-32.887467 127.453867-96.9216 13.602133-23.261867 21.8624-57.070933 30.5664-92.842667 8.1408-33.348267 18.193067-74.820267 29.934933-86.869333 2.6624-2.304 15.837867-5.239467 32.273067 1.28 13.499733 5.341867 36.864 20.394667 41.864533 61.371733 11.0592 90.299733-27.562667 176.264533-27.938133 177.134933-4.027733 8.7552-3.259733 18.653867 1.860267 26.743467 5.1712 8.055467 14.0288 12.6976 23.620267 12.6976l206.557867 0c7.594667 0 27.733333 13.2608 27.733333 28.859733C873.472 284.503467 830.122667 567.741867 818.363733 594.4512zM94.327467 614.658133l134.741333 0 0-435.5072L94.327467 179.150933 94.327467 614.658133z"  horiz-adv-x="1024" />

    
    <glyph glyph-name="tuxiang" unicode="&#58934;" d="M859.072-96h-505.131c0 0-161.749 0-215.659 0-31.616 0-51.115 14.997-68.48 34.091-17.493 19.2-27.136 44.117-27.136 70.123v559.168c0 57.451 46.741 104.213 104.213 104.213h712.171c57.472 0 104.213-46.741 104.213-104.213v-205.248c0-0.299 0-0.533-0.021-0.832-0.021-0.491-2.027-53.248 15.957-88 4.864-9.408 1.173-20.949-8.213-25.792-9.387-4.885-20.928-1.216-25.792 8.213-21.931 42.368-20.437 100.544-20.203 106.795v204.885c0 36.373-29.568 65.92-65.941 65.92h-712.171c-36.352 0-65.92-29.547-65.92-65.92v-559.168c0-33.749 25.045-61.952 58.389-65.707l719.701-0.213c36.352 0 65.92 29.547 65.92 65.92l-0.405 105.088c-0.107 1.792-1.643 20.117-20.117 43.755-0.043 0.085-0.107 0.128-0.149 0.213l-22.357 29.333-120.704 159.701c-0.427 0.576-40.149 52.373-88.832 46.869-39.467-4.416-78.208-46.507-112-121.621-18.155-40.299-35.669-70.293-53.632-91.669-18.133-21.632-36.736-34.539-56.896-39.467-44.715-10.965-83.456 19.541-124.48 51.883l-5.205 4.075c-47.936 37.675-70.784 29.035-163.029-61.376-7.552-7.424-19.669-7.296-27.072 0.256-7.403 7.573-7.275 19.669 0.277 27.093 48.043 47.125 79.851 74.88 110.251 86.784 34.347 13.419 66.197 6.464 103.211-22.677l5.248-4.117c34.944-27.499 65.088-51.243 91.669-44.757 26.368 6.464 54.869 43.371 84.715 109.675 40.299 89.579 88.384 138.005 142.912 144 70.485 7.744 121.323-59.093 123.456-61.952l120.597-159.573 22.229-29.163c27.051-34.624 28.139-63.467 28.181-66.667 0-0.043 0-0.085 0-0.128l0.405-105.451c0.021-57.6-46.72-104.341-104.171-104.341zM302.187 371.413c-43.584 0-79.040 43.669-79.040 87.253s35.456 79.040 79.040 79.040 79.040-35.456 79.040-79.040-35.456-87.253-79.040-87.253zM302.187 499.413c-22.464 0-40.768-18.283-40.768-40.747s18.283-48.96 40.768-48.96 40.747 26.496 40.747 48.96-18.283 40.747-40.747 40.747z"  horiz-adv-x="1024" />

    
    <glyph glyph-name="fanhui1" unicode="&#58977;" d="M1251.720116-81.870599c-15.365544-38.617283 31.579857-114.275312-36.751392-128.483442-68.625864-14.213391-42.210527 67.32465-57.137656 102.353951C1069.971093 97.146227 794.482081 181.27442 629.247247 175.101547c-59.43144-2.302552-43.641511-42.210527-49.382984-75.66329-9.48027-55.410304 35.313393-133.221824-25.270199-162.506144-71.345786-34.594394-111.541361 49.670584-160.212361 86.565776-118.722587 89.867913-231.558147 187.202897-346.978597 281.379545-50.245784 40.909313-71.926247 79.675657-7.323272 130.345826 140.25925 109.822777 278.359748 222.235706 415.892061 335.358865 31.723657 26.127737 62.733576 55.124458 104.081304 34.306794 36.032393-18.229266 19.092065-58.857994 19.811064-89.580313 3.014537-128.771042 0.711985-135.661161 191.792218-177.147427C1088.780819 468.81807 1235.781127 227.786668 1251.720116-81.870599L1251.720116-81.870599zM1167.593677 42.735508c-77.52392 325.164856-302.909194 420.918042-515.808429 445.325442-134.805376 15.502329-136.957114 8.035257-148.012168 146.998554-4.303475 53.83552-13.77673 65.755127-60.288978 25.989198C345.140765 576.922263 243.504059 496.383807 141.428939 416.708149c-44.930449-35.02404-36.463792-58.85624 3.302136-91.018312 88.005529-71.200233 171.556768-147.861354 260.418082-218.063755 23.6884-18.658912 47.089201-59.719039 80.538457-44.793664 34.601409 15.367297 19.667265 59.585762 16.796528 89.013882-8.617471 87.135715 30.580273 109.678977 109.966577 99.053569 180.737163-24.2636 363.492786-40.197328 499.8747-184.621514C1121.942475 56.0861 1140.171741 54.079916 1167.593677 42.735508L1167.593677 42.735508zM1167.593677 42.735508"  horiz-adv-x="1254" />

    
    <glyph glyph-name="wenjian" unicode="&#59331;" d="M1026.1 5c0 0 0 583.9 0 641.3 0 77.9-70.9 70.6-70.9 70.6s-423.5-0.5-401.1 0c-24.3-0.5-36.3 12.7-36.3 12.7s-16.9 29-47.2 74.9c-31.8 48.1-68.6 40.2-68.6 40.2L89.9 844.7c-86.5 0-87.5-83.2-87.5-83.2s0-692.3 0-752.2c0-92.8 70.1-81.3 70.1-81.3s836.3 0 889.1 0C1036.6-72 1026.1 5 1026.1 5z"  horiz-adv-x="1027" />

    
    <glyph glyph-name="settings" unicode="&#58912;" d="M513.046 602.58c-121.294 0-219.539-98.246-219.539-219.452 0-121.175 98.246-219.39 219.539-219.39 121.183 0 219.428 98.215 219.428 219.39 0 121.208-98.245 219.452-219.428 219.452zM513.704 220.594c-89.62 0-162.201 72.581-162.201 162.136 0 89.531 72.582 162.111 162.201 162.111 89.561 0 162.141-72.58 162.141-162.111 0.001-89.557-72.58-162.136-162.141-162.136zM994.14 470.721v14.3h-100.419c-9.029 33.808-22.442 65.838-39.592 95.426l71.049 71.071-10.112 10.14 9.194 32.138-102.003 102.003-31.073-10.287-10.425 10.424-71.181-71.202c-29.574 17.068-61.568 30.398-95.345 39.351v100.474h-14.755l-14.342 29.226h-145.84l-15.101-29.226h-14.299v-100.893c-33.424-9.017-65.087-22.32-94.367-39.285l-71.217 71.216-37.094 3.212-6.694-5.669-101.168-101.168 10.962-30.371-10.425-10.424 71.336-71.337c-16.983-29.427-30.27-61.239-39.224-94.82l-100.705 0v-14.3l-29.254-14.82v-146.086l29.254-14.306v-14.698h100.816c8.96-33.407 22.198-65.076 39.092-94.356l-71.314-71.316 10.425-10.395-9.825-31.536 103.311-103.312 30.396 10.966 10.112-10.115 71.172 71.154c29.29-16.981 60.971-30.295 94.411-39.305v-100.809h14.299l15.122-29.255h147.253l12.906 29.255h14.755v100.403c33.783 8.961 65.796 22.296 95.375 39.36l71.15-71.171 10.425 10.426 20.681-14.222 11.235 4.778 102.805 102.805-10.839 30.519 10.111 10.112-71.024 71.045c17.069 29.448 30.432 61.319 39.454 94.969h100.534v14.698l29.254 16.059-0 145.305-29.255 13.846zM964.999 339.178h-92.748l-1.431-11.406c-13.334-1.036-26.615-6.951-28.991-17.678-9.369-42.33-26.719-81.697-50.391-116.391-5.065-7.416 0.416-19.092 9.315-28.111l-4.015-4.93 66.569-66.543-61.871-61.845-65.793 65.822-9.856-7.747c-9.567 9.139-22.795 14.622-32.651 8.383-32.528-20.624-68.819-35.78-107.643-44.267-10.337-2.259-15.813-14.996-16.57-28.021l-13.084-1.312v-94.235h-87.542v92.97l-13.068 1.594c-0.952 13.608-7.099 27.352-18.408 29.971-40.199 9.365-77.62 25.894-110.851 48.229-0.44 0.295-13.887-5.772-26.332-13.542l-10.426 8.1-65.577-65.573-61.842 61.812 67.116 67.141-9.356 11.164c7.97 11.338 13.994 23.475 13.539 24.156-22.647 33.99-39.245 72.355-48.312 113.51-2.38 10.812-16.131 16.324-29.783 16.74l-1.428 12.002-93.13 0v87.482h93.638l1.191 10.801c13.546 0.976 26.994 6.758 29.282 17.286 9.201 42.5 26.463 82.010 50.078 116.846 5.191 7.657 0.179 19.615-8.102 29.357l2.849 3.326-67.585 67.585 61.842 61.842 55.633-55.657c8.488-14.859 27.164-29.415 36.146-22.878 36.632 26.69 78.82 46.147 124.537 56.317 9.292 2.062 15.246 12.358 17.676 23.84h8.004l2.664 5.653 0 94.445h87.543v-94.736l12.647-1.162c1.109-12.964 6.8-25.546 17.064-27.785 41.232-9.016 79.647-25.604 113.706-48.197 0.441-0.295 10.945 5.569 21.198 13.354l12.608-11.234 68.376 68.378 61.871-61.842-67.133-67.104 3.768-4.497c-6.942-8.397-10.612-18.583-5.925-25.306 0.321-0.464-0.176-0.928 0.146-1.393 1.089-1.579-1.528-3.168-0.464-4.765 22.385-33.649 38.862-71.602 47.961-112.283 2.421-10.804 15.674-16.777 28.985-17.843l1.532-12.351h92.821v-87.474l0.003 0zM253.059 774.652c0-16.237-13.162-29.399-29.398-29.399s-29.399 13.162-29.399 29.399c0 8.967 4.014 16.996 10.346 22.389 5.131 4.37 11.783 7.008 19.051 7.008 16.239 0 29.4-13.162 29.4-29.397zM468.713 864.539c0-16.236-13.163-29.398-29.399-29.398s-29.398 13.161-29.398 29.398c0 8.967 4.014 16.997 10.345 22.39 5.131 4.371 11.784 7.009 19.052 7.009 16.237-0.001 29.4-13.163 29.4-29.399zM468.275 741.212c0-16.237-13.163-29.398-29.399-29.398-16.237 0-29.398 13.161-29.398 29.398 0 8.968 4.014 16.997 10.345 22.39 5.131 4.37 11.783 7.009 19.051 7.009 16.238-0 29.401-13.163 29.401-29.399zM614.649 741.212c0-16.237-13.162-29.398-29.399-29.398s-29.399 13.161-29.399 29.398c0 8.968 4.014 16.997 10.345 22.39 5.132 4.37 11.784 7.009 19.052 7.009 16.239-0 29.401-13.163 29.401-29.399zM614.24 864.382c0-16.236-13.163-29.399-29.399-29.399s-29.399 13.162-29.399 29.399c0 8.968 4.018 16.997 10.347 22.389 5.13 4.371 11.783 7.008 19.050 7.008 16.238-0.001 29.401-13.162 29.401-29.397zM830.915 775.047c0-16.236-13.162-29.399-29.4-29.399-16.235 0-29.397 13.163-29.397 29.399 0 8.968 4.015 16.997 10.345 22.39 5.132 4.37 11.785 7.008 19.050 7.008 16.239-0.001 29.402-13.162 29.402-29.398zM744.157 688.535c0-16.236-13.162-29.399-29.398-29.399-16.237 0-29.399 13.163-29.399 29.399 0 8.968 4.016 16.996 10.347 22.39 5.13 4.37 11.783 7.008 19.050 7.008 16.238-0.001 29.4-13.163 29.4-29.398zM847.498 585.486c0-16.237-13.163-29.399-29.399-29.399s-29.397 13.162-29.397 29.399c0 8.968 4.014 16.996 10.345 22.389 5.132 4.371 11.784 7.008 19.050 7.008 16.238-0 29.401-13.16 29.401-29.397zM933.663 672.182c0-16.236-13.161-29.399-29.399-29.399-16.236 0-29.398 13.163-29.398 29.399 0 8.968 4.015 16.996 10.346 22.389 5.132 4.371 11.784 7.008 19.050 7.008 16.24-0.001 29.401-13.162 29.401-29.397zM1023.428 455.624c0-16.236-13.161-29.398-29.398-29.398s-29.399 13.162-29.399 29.398c0 8.968 4.018 16.996 10.348 22.39 5.131 4.371 11.784 7.008 19.050 7.008 16.236-0 29.399-13.162 29.399-29.398zM1023.428 310.196c0-16.237-13.161-29.399-29.398-29.399s-29.399 13.159-29.399 29.399c0 8.969 4.018 16.997 10.348 22.39 5.131 4.371 11.784 7.009 19.050 7.009 16.236-0.001 29.399-13.164 29.399-29.399zM933.657 94.189c0-16.236-13.161-29.398-29.398-29.398s-29.399 13.161-29.399 29.398c0 8.968 4.018 16.997 10.347 22.392 5.132 4.368 11.783 7.007 19.051 7.007 16.237-0.002 29.399-13.165 29.399-29.399zM830.852-8.712c0-16.236-13.161-29.397-29.398-29.397s-29.399 13.16-29.399 29.397c0 8.968 4.018 16.996 10.347 22.392 5.131 4.37 11.783 7.007 19.051 7.007 16.237-0.001 29.399-13.164 29.399-29.399zM614.229-98.094c0-16.234-13.161-29.397-29.399-29.397-16.236 0-29.398 13.161-29.398 29.397 0 8.97 4.015 16.999 10.346 22.392 5.131 4.37 11.784 7.008 19.049 7.008 16.24-0.002 29.402-13.164 29.402-29.4zM468.718-98.094c0-16.234-13.163-29.397-29.399-29.397-16.237 0-29.398 13.161-29.398 29.397 0 8.97 4.015 16.999 10.347 22.392 5.13 4.37 11.783 7.008 19.050 7.008 16.236-0.002 29.4-13.164 29.4-29.4zM253.017-8.372c0-16.234-13.162-29.397-29.398-29.397s-29.399 13.161-29.399 29.397c0 8.97 4.016 16.998 10.347 22.392 5.131 4.37 11.784 7.008 19.050 7.008 16.237-0.001 29.4-13.163 29.4-29.4zM150.114 94.53c0-16.235-13.162-29.398-29.399-29.398-16.236 0-29.399 13.16-29.399 29.398 0 8.97 4.017 16.998 10.348 22.391 5.131 4.371 11.783 7.009 19.050 7.009 16.238-0.002 29.4-13.165 29.4-29.4zM150.17 671.798c0-16.236-13.162-29.398-29.398-29.398-16.236 0-29.399 13.162-29.399 29.398 0 8.968 4.014 16.996 10.346 22.39 5.131 4.371 11.783 7.008 19.052 7.008 16.237 0 29.399-13.161 29.399-29.398zM237.219 584.265c0-16.237-13.162-29.399-29.398-29.399-16.237 0-29.398 13.162-29.398 29.399 0 8.967 4.014 16.996 10.345 22.389 5.131 4.371 11.784 7.008 19.052 7.008 16.237-0.001 29.399-13.162 29.399-29.397zM901.551 456.009c0-16.237-13.161-29.399-29.399-29.399-16.235 0-29.398 13.162-29.398 29.399 0 8.968 4.016 16.996 10.346 22.39 5.131 4.37 11.783 7.008 19.050 7.008 16.238-0.002 29.401-13.165 29.401-29.398zM847.607 180.823c0-16.235-13.163-29.398-29.399-29.398-16.234 0-29.397 13.161-29.397 29.398 0 8.967 4.016 16.997 10.346 22.391 5.131 4.37 11.783 7.007 19.049 7.007 16.238 0 29.401-13.161 29.401-29.398zM743.998 77.534c0-16.236-13.16-29.4-29.398-29.4-16.236 0-29.398 13.162-29.398 29.4 0 8.967 4.015 16.996 10.346 22.389 5.132 4.37 11.783 7.008 19.050 7.008 16.239-0.001 29.4-13.16 29.4-29.397zM614.642 24.331c0-16.235-13.16-29.399-29.398-29.399s-29.399 13.163-29.399 29.399c0 8.967 4.016 16.996 10.347 22.389 5.132 4.371 11.784 7.009 19.050 7.009 16.238 0 29.4-13.161 29.4-29.398zM468.293 24.331c0-16.235-13.163-29.399-29.398-29.399-16.236 0-29.399 13.163-29.399 29.399 0 8.967 4.016 16.996 10.348 22.389 5.13 4.371 11.782 7.009 19.049 7.009 16.236 0 29.4-13.161 29.4-29.398zM340.297 78.409c0-16.235-13.162-29.399-29.399-29.399-16.235 0-29.398 13.162-29.398 29.399 0 8.968 4.016 16.997 10.347 22.39 5.13 4.37 11.783 7.008 19.049 7.008 16.239-0 29.401-13.162 29.401-29.398zM237.151 181.992c0-16.234-13.161-29.399-29.399-29.399-16.236 0-29.398 13.162-29.398 29.399 0 8.968 4.016 16.997 10.346 22.39 5.131 4.371 11.784 7.009 19.050 7.009 16.24-0.001 29.401-13.162 29.401-29.399zM184.728 309.793c0-16.236-13.161-29.399-29.399-29.399-16.236 0-29.398 13.161-29.398 29.399 0 8.967 4.015 16.996 10.347 22.39 5.131 4.371 11.783 7.008 19.050 7.008 16.239-0 29.4-13.161 29.4-29.398zM901.041 309.774c0-16.234-13.162-29.397-29.399-29.397s-29.399 13.161-29.399 29.397c0 8.969 4.016 16.998 10.347 22.393 5.131 4.371 11.783 7.008 19.050 7.008 16.239-0.002 29.401-13.163 29.401-29.401zM60.83 310.183c0-16.234-13.162-29.399-29.397-29.399-16.237 0-29.399 13.163-29.399 29.399 0 8.968 4.016 16.997 10.347 22.389 5.131 4.371 11.783 7.009 19.050 7.009 16.237 0 29.399-13.162 29.399-29.398zM60.879 455.626c0-16.235-13.162-29.399-29.398-29.399-16.237 0-29.399 13.162-29.399 29.399 0 8.968 4.016 16.997 10.347 22.389 5.131 4.371 11.783 7.008 19.050 7.008 16.237-0.001 29.4-13.161 29.4-29.397zM184.32 456.063c0-16.235-13.161-29.399-29.398-29.399s-29.398 13.163-29.398 29.399c0 8.968 4.015 16.997 10.346 22.39 5.132 4.371 11.783 7.008 19.050 7.008 16.239-0.001 29.4-13.162 29.4-29.398z"  horiz-adv-x="1024" />

    
    <glyph glyph-name="software_yule" unicode="&#58923;" d="M231.94-28.758l86.267-47.021v-28.041l-14.315 7.774v-7.774l-95.596 52.114-91.253-52.114v8.15l-14.262-8.15v28.041l89.002 50.881v306.68l-191.782 13.618 2.788 38.71 15.87-1.126 0 310.594 161.597-12.278v177.467c-92.165 0.751-165.135 9.865-165.135 21.017 0 11.152 72.971 20.267 165.135 21.017l-0 21.017h23.055v-21.071c92.111-0.697 165.082-9.812 165.082-20.964s-72.971-20.267-165.082-21.017v-179.236l184.759-14.047v-104.228c-82.729-46.056-139.668-132.805-143.636-233.28l-12.492 0.911v-307.645zM863.207 281.943h-0.107l160.9 13.457-2.734 38.657-15.763-1.126v310.647l-244.164-20.106-4.075-2.842-1.608 2.359-91.575-7.56v-106.802c80.423-46.699 135.432-132.269 139.293-230.975l33.939 2.413v-294.885l-89.002-50.881v-28.041l98.223 56.189 102.942-56.189v28.041l-86.267 47.021v300.621zM645.851 39.494h5.576v-139.454h-38.067l-0 124.173c-28.577-11.098-59.62-17.211-92.218-17.211-30.293 0-59.459 5.362-86.482 15.012v-121.975h-38.067v139.346c-78.278 43.75-131.304 127.337-131.304 223.362 0 141.277 114.576 255.799 255.799 255.799 141.33 0 255.853-114.469 255.853-255.799 0.107-95.918-52.811-179.558-131.090-223.254zM623.011 262.749c0 56.189-45.627 101.869-101.816 101.869-56.135 0-101.816-45.68-101.816-101.869 0-56.082 45.68-101.816 101.816-101.816 56.135 0.054 101.816 45.734 101.816 101.816zM1024 669.797l-3.753 22.947-206.634-33.724 183.311 124.656-13.082 19.248-224.756-152.75-24.931-4.075 3.753-22.947 15.924 2.574 1.769-2.681 5.737 0.429 6.702 4.557 255.96 41.766z"  horiz-adv-x="1025" />

    
    <glyph glyph-name="icon" unicode="&#58881;" d="M62.626 832.396h455.719v-455.719h-455.719v455.719zM869.498 392.894v-366.344h-366.346v-89.376h455.721v455.72zM645.732 616.66v-366.344h-366.346v-89.375h455.72v455.719z"  horiz-adv-x="1024" />

    
    <glyph glyph-name="zhihufangxingmoren" unicode="&#58939;" d="M803.617196 812.250574 222.527654 812.250574c-75.509764 0-136.731104-61.220317-136.731104-136.731104l0-581.082378c0-75.527161 61.22134-136.748501 136.731104-136.748501l581.090565 0c75.514881 0 136.737244 61.220317 136.737244 136.748501L940.355463 675.52868C940.353416 751.035374 879.1331 812.250574 803.617196 812.250574L803.617196 812.250574zM912.501068 118.692518c0-73.525574-59.615773-133.138276-133.138276-133.138276L246.793314-14.445758c-73.528644 0-133.143393 59.616796-133.143393 133.138276L113.649921 651.258926c0 73.53069 59.615773 133.146463 133.143393 133.146463L779.360745 784.405389c73.531713 0 133.147486-59.614749 133.147486-133.146463L912.501068 118.692518 912.501068 118.692518 912.501068 118.692518zM415.621441 352.643851l125.592416 0c0 29.528524-13.923104 46.824445-13.923104 46.824445L418.29534 399.468296c2.589988 53.492308 4.909823 122.148991 5.738701 147.648758l103.677291 0c0 0-0.561795 43.872207-12.091386 43.872207L333.378321 590.989261c0 0 10.970866 57.373709 25.593911 82.700537 0 0-54.417377 2.936889-72.981175-69.622684-18.560728-72.559573-46.402843-116.430756-49.355081-124.446313-2.953262-8.012488 16.031115-3.794419 24.043602 0 8.015557 3.797489 44.294832 16.876366 54.840002 67.496254l56.350402 0c0.760317-32.081673 2.990101-130.396839 2.287089-147.648758L258.148943 399.468296c-16.449647-11.809977-21.935592-46.824445-21.935592-46.824445l132.591831 0c-5.529947-36.614919-15.239076-83.812871-28.817326-108.834754-21.512966-39.655162-32.903388-75.934436-110.525256-138.368394 0 0-12.656251-9.280364 26.576285-5.9055 39.231513 3.371794 76.356039 13.497409 102.087073 64.962547 13.377682 26.756387 27.212782 60.697407 38.005592 95.121428l-0.038886-0.12075 109.259426-125.794008c0 0 14.34266 33.746592 3.797489 70.870094l-80.993662 90.697675-27.41949-20.278859-0.031722-0.099261c7.615445 26.700105 13.09218 53.095265 14.794961 76.061326C415.541623 351.507982 415.583578 352.07387 415.621441 352.643851L415.621441 352.643851zM415.621441 352.643851M567.366494 600.269625l0-435.349249 45.77044 0 18.752086-52.405557 79.32772 52.405557 99.978039 0L811.194778 600.269625 567.366494 600.269625 567.366494 600.269625zM764.089947 211.746868l-51.967582 0-64.817238-42.817178-15.318894 42.817178-16.177448 0L615.808786 551.68714l148.280138 0L764.088924 211.746868 764.089947 211.746868zM764.089947 211.746868"  horiz-adv-x="1024" />

    
    <glyph glyph-name="shipin" unicode="&#58907;" d="M865.900727 706.446853 158.084946 706.446853c-32.106232 0-58.225099-26.114774-58.225099-58.214866l0-528.500812c0-32.100092 26.119891-58.216913 58.225099-58.216913l707.814758 0c32.104185 0 58.222029 26.115797 58.222029 58.216913L924.121733 648.23301C924.122757 680.332079 898.004913 706.446853 865.900727 706.446853zM883.190509 648.23301l0-44.182268-95.082542 0 0 61.464887 77.792761 0C875.433848 665.514605 883.190509 657.762037 883.190509 648.23301zM747.175719 404.445658 276.826328 404.445658 276.826328 665.514605l470.349391 0L747.175719 404.445658zM235.89408 470.984097l-95.103008 0 0 92.133374 95.103008 0L235.89408 470.984097zM235.89408 430.051849l0-92.140537-95.103008 0 0 92.140537L235.89408 430.051849zM235.89408 296.979064l0-92.134397-95.103008 0 0 92.134397L235.89408 296.979064zM276.826328 363.51341l470.349391 0 0-261.065877L276.826328 102.447533 276.826328 363.51341zM788.107967 296.979064l95.082542 0 0-92.134397-95.082542 0L788.107967 296.979064zM788.107967 337.911312l0 92.140537 95.082542 0 0-92.140537L788.107967 337.911312zM788.107967 470.984097l0 92.133374 95.082542 0 0-92.133374L788.107967 470.984097zM158.084946 665.514605l77.809133 0 0-61.464887-95.103008 0 0 44.182268C140.792095 657.762037 148.549779 665.514605 158.084946 665.514605zM140.792095 119.732198l0 44.180222 95.103008 0 0-61.463864-77.809133 0C148.549779 102.447533 140.792095 110.201124 140.792095 119.732198zM865.900727 102.447533l-77.792761 0 0 61.463864 95.082542 0 0-44.180222C883.190509 110.201124 875.433848 102.447533 865.900727 102.447533z"  horiz-adv-x="1024" />

    
    <glyph glyph-name="pinglun" unicode="&#58949;" d="M820.032 94.784 820.032-64l-156.992 96.64c-21.76-3.584-44.032-5.632-67.008-5.632-107.904 0-204.416 41.28-271.04 106.432 10.944-0.64 21.888-1.408 33.024-1.408 15.68 0 31.104 0.768 46.4 1.984 52.608-36.224 119.104-57.984 191.616-57.984 25.024 0 49.216 2.88 72.512 7.68l54.528-36.288c-0.064-0.064-0.064-0.064-0.128-0.128l41.216-27.264 0 99.2c84.16 47.488 140.032 129.408 140.032 222.784 0 59.072-22.592 113.344-60.224 157.504 2.496 17.28 4.224 34.688 4.224 52.48 0 8.128-0.896 16.064-1.408 24.128C916.288 518.08 960 436.352 960 345.472 960.064 243.648 905.152 153.152 820.032 94.784L820.032 94.784zM428.032 195.008c-22.912 0-45.312 2.048-67.072 5.632l-156.992-96.64L203.968 262.784C118.912 321.152 64 411.584 64 513.472 64 689.344 227.008 832 428.032 832c201.024 0 364.032-142.656 364.032-318.528S629.056 195.008 428.032 195.008L428.032 195.008zM428.032 776c-170.112 0-308.032-119.104-308.032-265.984 0-93.312 55.744-175.296 139.968-222.784l0-99.2 41.216 27.264c-0.064 0.064-0.128 0.064-0.128 0.128l54.528 36.288c23.296-4.8 47.488-7.68 72.512-7.68 170.048 0 308.032 119.04 308.032 265.984C736.064 656.896 598.144 776 428.032 776L428.032 776zM610.048 467.968c-23.168 0-41.984 18.816-41.984 41.984S586.88 552 610.048 552s41.984-18.816 41.984-41.984S633.28 467.968 610.048 467.968L610.048 467.968zM441.984 467.968c-23.168 0-41.984 18.816-41.984 41.984s18.816 41.984 41.984 41.984c23.232 0 42.048-18.816 42.048-41.984S465.28 467.968 441.984 467.968L441.984 467.968zM274.048 467.968c-23.232 0-41.984 18.816-41.984 41.984s18.752 41.984 41.984 41.984c23.168 0 41.984-18.816 41.984-41.984S297.28 467.968 274.048 467.968L274.048 467.968zM274.048 467.968"  horiz-adv-x="1024" />

    
    <glyph glyph-name="shenghuo" unicode="&#58965;" d="M511.9872 858.5728C243.1104 858.5728 25.1392 640.6144 25.1392 371.7376s217.9712-486.848 486.848-486.848c268.8768 0 486.8608 217.9712 486.8608 486.848S780.8768 858.5728 511.9872 858.5728zM511.0528 654.3488c0.0384 4.7872 4.0064 8.704 8.9344 8.6656 4.928-0.0512 8.8704-3.9424 8.8448-8.7552l-0.128-24.4224-17.7792 0.1024L511.0528 654.3488zM796.3264 404.0448c-27.9296 0.064-52.7616-12.5568-69.0432-32.2816-16.0128 19.8784-40.8064 32.768-68.7488 32.8448-27.8912 0.1152-52.7744-12.5056-69.0432-32.2176-11.904 14.7712-28.6208 25.5488-47.8464 30.2208l-1.0112-237.8624c-0.2688-44.5184-32.1152-83.8784-76.6208-84.288-40.6656 0.2688-75.7504 29.8112-75.8912 69.3248l0.2176 51.264c0.0384 9.7664 8.4224 17.9072 18.4448 17.8816 10.0096-0.0896 17.8048-8.2688 17.7536-18.048 0 0-0.1024-23.104-0.2176-51.2512-0.0384-16.8832 16.576-33.5872 39.872-33.7792 9.9968-0.0256 19.5456 4.5568 27.3152 13.3376 7.6416 8.704 12.8896 21.4656 12.9152 35.7376l1.0112 238.848c-21.5936-3.6352-40.4864-14.8096-53.6576-30.784-16.0512 19.84-40.832 32.6656-68.7616 32.7808-27.8784 0.1152-52.8-12.5184-69.0432-32.192-15.9872 19.84-40.8192 32.6656-68.7104 32.7808-38.5664 0.192-71.3472-23.9104-83.4048-57.536 33.1264 142.0032 153.536 251.1488 302.9248 271.5776C334.0416 544.2688 331.6864 420.3008 331.6864 420.3008s42.8544 132.7744 164.608 200.0128l26.2528-0.128c60.5696-66.1888 69.0944-206.8608 69.0944-206.8608s12.3264 115.1104-30.7072 193.5744c111.8336-69.1712 153.8688-194.0992 153.8688-194.0992s-8.9728 128.9984-139.4688 206.5024c136.2688-22.144 246.7072-118.3744 286.784-244.7104C846.0288 392.4992 822.5664 403.9168 796.3264 404.0448z"  horiz-adv-x="1024" />

    
    <glyph glyph-name="huodong1" unicode="&#58989;" d="M449.609021 266.664641 449.609021 266.664641c-34.71157 10.875698-54.215786 48.173163-43.343157 82.884732l74.256214 237.056044c10.871605 34.71157 48.169069 54.215786 82.880639 43.343157l0 0c34.715663-10.875698 54.219879-48.173163 43.343157-82.884732l-74.252121-237.056044C521.617032 275.296229 484.320591 255.792013 449.609021 266.664641L449.609021 266.664641zM449.609021 266.664641M715.832362 531.802254l-0.607844 1.51654c-6.40999 15.963577-20.164249 23.806195-30.571273 17.421788l-58.006112-35.57831L586.637907 387.843538l121.926934 103.323227C718.971865 497.551172 722.242352 515.834584 715.832362 531.802254L715.832362 531.802254zM715.832362 531.802254M306.153772 155.988959l-0.38988 1.622964c-4.098341 17.083074 6.5246 34.415834 23.612791 38.515199l226.932476 82.541925c17.083074 4.099365 37.07336-33.975812 41.171702-51.058886l0.388856-1.622964c4.102435-17.083074-6.523577-34.414811-23.606651-38.514175l-229.590002-55.094806C327.587943 128.278851 310.256206 138.901793 306.153772 155.988959L306.153772 155.988959zM306.153772 155.988959M385.573589 112.401232l-44.835138-111.837134c-7.179516-12.840446-0.207731-27.752064 15.485693-33.143864l1.49198-0.51063c15.697517-5.387707 34.414811 0.705058 41.594327 13.541411L483.383242 130.789021 385.573589 112.401232 385.573589 112.401232zM385.573589 112.401232M410.354995 352.367559l15.046694 19.149129c16.673751 21.228487 46.124504 26.177196 65.438385 11.002588l105.554034-113.417119c18.980283-22.466688 21.131273-40.554648 4.453429-61.780065l-2.310625-2.792603c-16.677844-21.228487-46.124504-26.176173-65.442478-11.001565L415.159418 286.186254C395.841444 301.362908 393.682267 331.143165 410.354995 352.367559L410.354995 352.367559zM410.354995 352.367559M557.922912 615.054353l6.139837-14.97097c6.807033-16.597003-5.641487-37.562501-27.659967-46.593178l-143.252635-41.535999c-27.317159-6.942109-42.097794-3.739161-48.904827 12.853749l-0.832971 2.264577c-6.807033 16.59291 5.641487 37.559431 27.659967 46.593178l134.438898 55.141878C527.528672 637.837242 551.114856 631.648286 557.922912 615.054353L557.922912 615.054353zM557.922912 615.054353M477.724359 723.765287c0-20.75572 8.5487-41.387619 23.222911-56.06183 14.678304-14.679327 35.307134-23.227004 56.065923-23.227004s41.387619 8.547677 56.065923 23.227004c14.674211 14.674211 23.222911 35.30611 23.222911 56.06183 0 20.75879-8.5487 41.387619-23.222911 56.066947-14.678304 14.678304-35.307134 23.222911-56.065923 23.222911s-41.387619-8.544607-56.065923-23.222911C486.273059 765.152906 477.724359 744.524077 477.724359 723.765287L477.724359 723.765287zM477.724359 723.765287M471.090265 376.287341l-1.334391-0.61296c-14.044878-6.40999-29.653367-2.636037-34.681894 8.387018l-90.548272 140.561339c-5.03262 11.025101 25.27157 32.856315 39.316447 39.266305l1.335415 0.61296c14.040784 6.408967 29.649274 2.636037 34.68087-8.387018l67.623144-148.133805C492.509087 396.96222 485.136166 382.697331 471.090265 376.287341L471.090265 376.287341zM471.090265 376.287341M512 891.624343c-280.353153 0-507.624343-227.27119-507.624343-507.624343s227.27119-507.624343 507.624343-507.624343 507.624343 227.27119 507.624343 507.624343S792.353153 891.624343 512 891.624343zM512-74.054367c-252.976642 0-458.054367 205.077725-458.054367 458.054367S259.023358 842.054367 512 842.054367s458.054367-205.077725 458.054367-458.054367S764.976642-74.054367 512-74.054367z"  horiz-adv-x="1024" />

    
    <glyph glyph-name="bookbag1197219easyiconnet" unicode="&#58925;" d="M1022.158758 309.159943c-11.803167 109.271322-112.746628 258.709451-127.613211 280.215155l-0.906154 44.432422c-0.213667 10.508294-8.79381 18.915958-19.304677 18.915958l-177.716817 0 0 1.884388c0 50.592723-41.160487 91.755783-91.753209 91.755783l-185.725465 0c-50.592723 0-91.755783-41.160487-91.755783-91.755783l0-1.884388L149.669199 652.723479c-10.510868 0-19.088436-8.407665-19.304677-18.915958l-0.906154-44.489057c-15.000447-21.696202-115.80747-170.967002-127.608063-280.150798-6.451196-59.661982 3.985017-104.892437 31.025466-134.437681 20.656185-22.56889 50.005782-35.175238 87.366601-37.649141l-1.95132-95.738226c-0.105546-5.189789 1.881813-10.201952 5.514151-13.90637 3.632338-3.704418 8.600737-5.79475 13.790526-5.79475L886.462244 21.641499c10.662752 0 19.307252 8.641926 19.307252 19.307252 0 0.612683-0.028317 1.220218-0.084952 1.817456l-1.923002 94.317212c37.350522 2.471328 66.692396 15.077676 87.348581 37.641418C1018.153147 204.259783 1028.599657 249.490238 1022.158758 309.159943zM365.997945 654.605292c0 29.30326 23.83802 53.14128 53.14128 53.14128l185.725465 0c29.300685 0 53.138706-23.83802 53.138706-53.14128l0-1.884388L365.997945 652.720905 365.997945 654.605292zM168.587731 614.106401l686.831026 0 3.555109-174.388247c-4.551363-60.346746-55.059133-108.071698-116.551443-108.071698l-25.189528 0 0 25.851123c0 26.484401-21.544319 48.031294-48.026145 48.031294-26.481827 0-48.026145-21.546893-48.026145-48.031294l0-25.851123-218.35472 0 0 25.851123c0 26.484401-21.544319 48.031294-48.026145 48.031294s-48.026145-21.546893-48.026145-48.031294l0-25.851123-24.764768 0c-63.399866 0-115.140727 50.724012-116.857785 113.717139L168.587731 614.106401zM678.618392 357.495005l0-75.573732c0-5.189789-4.221852-9.411642-9.411642-9.411642-5.189789 0-9.411642 4.224427-9.411642 9.411642l0 75.573732c0 5.194938 4.221852 9.41679 9.411642 9.41679C674.396539 366.911795 678.618392 362.687368 678.618392 357.495005zM364.208806 357.495005l0-75.573732c0-5.189789-4.221852-9.411642-9.411642-9.411642s-9.411642 4.224427-9.411642 9.411642l0 75.573732c0 5.194938 4.221852 9.41679 9.411642 9.41679S364.208806 362.687368 364.208806 357.495005zM61.362978 200.799924c-19.2223 21.001141-26.327369 56.063111-21.119559 104.212822 7.233784 66.93438 54.093771 154.684553 87.708983 210.364093l-6.922293-339.648025C94.790266 177.780531 74.746765 186.175324 61.362978 200.799924zM157.299425 60.253428l5.871979 288.12598c28.543841-33.821157 71.210293-55.350029 118.834848-55.350029l24.764768 0 0-11.108106c0-26.481827 21.544319-48.026145 48.026145-48.026145s48.026145 21.544319 48.026145 48.026145l0 11.108106 218.35472 0 0-11.108106c0-26.481827 21.544319-48.026145 48.026145-48.026145 26.481827 0 48.026145 21.544319 48.026145 48.026145l0 11.108106 25.189528 0c47.395442 0 89.879119 21.328077 118.420385 54.868635l5.861682-287.644586L157.299425 60.253428zM962.63064 200.797349c-13.381213-14.614302-33.416991-23.024541-59.654259-25.058239l-6.924868 339.686639c33.612638-55.67954 80.485497-143.463178 87.716706-210.41043C988.965731 256.857886 981.852939 221.793342 962.63064 200.797349z"  horiz-adv-x="1025" />

    
    <glyph glyph-name="weibiaoti25" unicode="&#58942;" d="M911.2 228 400.8 228c-24.8 0-44.8 21.6-44.8 48s20 48 44.8 48l510.4 0c24.8 0 44.8-21.6 44.8-48S936 228 911.2 228zM911.2 452 400.8 452c-24.8 0-44.8 21.6-44.8 48s20 48 44.8 48l510.4 0c24.8 0 44.8-21.6 44.8-48S936 452 911.2 452zM908 668l-781.6 0c-26.4 0-49.6 20-50.4 46.4-0.8 27.2 20.8 49.6 48 49.6l781.6 0c26.4 0 49.6-20 50.4-46.4C956.8 690.4 935.2 668 908 668zM76 228.8 76 547.2c0 0 0 0 0 0l223.2-159.2c0 0 0 0 0 0L76 228.8C76 228 76 228 76 228.8zM124 108l781.6 0c26.4 0 49.6-20 50.4-46.4 0.8-27.2-20.8-49.6-48-49.6l-781.6 0c-26.4 0-49.6 20-50.4 46.4C75.2 85.6 96.8 108 124 108z"  horiz-adv-x="1024" />

    
    <glyph glyph-name="wenjiandocuments4" unicode="&#59198;" d="M219.84256 612.73088c-22.12864 0-40.15104-18.04288-40.15104-40.16128l0-574.5664c0-22.14912 18.0224-40.16128 40.15104-40.16128l403.73248 0c22.15936 0 40.15104 18.01216 40.15104 40.16128L663.72608 488.54016 549.43744 612.73088 219.84256 612.73088zM630.016-1.9968c0-3.54304-2.89792-6.44096-6.44096-6.44096L219.84256-8.43776c-3.54304 0-6.43072 2.89792-6.43072 6.44096l0 574.5664c0 3.54304 2.88768 6.42048 6.43072 6.42048l305.34656 0 0-97.67936c0-9.29792 7.5776-16.83456 16.87552-16.83456l87.95136 0L630.016-1.9968zM558.91968 552.63232l50.10432-54.44608-50.10432 0L558.91968 552.63232zM730.03008 810.14784 400.41472 810.14784c-22.12864 0-40.1408-18.03264-40.1408-40.16128l0-116.91008 33.72032 0L393.99424 769.98656c0 3.55328 2.87744 6.42048 6.42048 6.42048l305.34656 0 0-97.66912c0-9.29792 7.5776-16.83456 16.86528-16.83456l87.95136 0 0-466.4832c0-3.55328-2.89792-6.4512-6.43072-6.4512l-95.35488 0 0-33.72032 95.35488 0c22.14912 0 40.15104 18.01216 40.15104 40.17152L844.29824 685.96736 730.03008 810.14784zM739.49184 695.61344l0 54.43584 50.10432-54.43584L739.49184 695.61344z"  horiz-adv-x="1024" />

    
    <glyph glyph-name="tuxiang1" unicode="&#59520;" d="M822.754045 588.446345c46.987151 0 85.213777 38.494733 85.213777 85.805248 0 47.309492-38.226626 85.804225-85.213777 85.804225-46.989197 0-85.22094-38.494733-85.22094-85.804225C737.534128 626.941078 775.765871 588.446345 822.754045 588.446345zM822.754045 736.314091c33.982976 0 61.633732-27.840068 61.633732-62.061474 0-34.222429-27.650757-62.063521-61.633732-62.063521-33.989115 0-61.639872 27.840068-61.639872 62.063521C761.114173 708.474023 788.765953 736.314091 822.754045 736.314091zM822.742788 616.982262c12.8384 0 25.024953 4.915963 34.310434 13.837146 4.710278 4.526083 4.882194 12.044314 0.390903 16.786315-4.501524 4.746094-11.95631 4.915963-16.671705 0.393973-9.753131-9.378601-26.273387-9.389858-36.049031-0.011256-4.697999 4.514827-12.171204 4.340865-16.666588-0.400113-4.497431-4.740978-4.318352-12.259208 0.397043-16.781198C797.740348 621.892085 809.916668 616.982262 822.742788 616.982262zM871.494119 685.195853c3.617387 3.641947 0.630357 12.55392-6.670933 19.904329-7.30129 7.352455-16.151865 10.359952-19.770276 6.718005-3.617387-3.643993-0.629333-12.554944 6.671956-19.906375C859.026156 684.559357 867.876732 681.552883 871.494119 685.195853zM737.19439 133.384126c88.835258 0 161.111374 73.065086 161.111374 162.875554 0 64.892963-38.389332 123.403564-96.664573 149.135622-10.800997 79.770811-78.700433 140.640134-159.446455 140.640134-31.470759 0-61.965284-9.190313-88.171132-26.570145-8.404414-5.573949-10.742668-16.978696-5.230118-25.468045 5.503341-8.490372 16.796548-10.866489 25.188682-5.2864 20.265556 13.434987 43.853787 20.540825 68.212568 20.540825 65.541739 0 120.146381-51.834552 124.304074-118.009717l0.76441-12.134365 11.340279-4.041036c49.837058-17.764596 83.315544-65.510016 83.315544-118.80585 0-69.526493-55.94722-126.09179-124.723629-126.09179-23.331381 0-46.087665 6.774287-65.760726 19.164478L671.434687 294.204881l78.126358 35.001165c9.185196 4.119831 13.33061 14.986319 9.262968 24.270776-4.075829 9.281387-14.817474 13.494339-24.00881 9.364275l-63.380516-28.396747 0 70.843488c0 10.160407-8.143471 18.391882-18.193361 18.391882s-18.192338-8.231475-18.192338-18.391882l0-99.399871c0-0.022513-0.001023-0.041956 0-0.063445l0-41.561581-33.887808 26.560936c-7.941879 6.219655-19.36607 4.759397-25.52535-3.269463-6.15314-8.02886-4.707209-19.577894 3.233648-25.803689l56.180534-44.030819 0-15.7231c-34.05563-20.710694-76.8022-23.536043-112.642476-8.212032-9.269108 3.963265-19.935028-0.413416-23.844058-9.771551-3.914146-9.358135 0.414439-20.145829 9.665127-24.102954 40.080857-17.133216 86.642313-16.627702 126.820384 1.039679l0-107.60474c-38.311561 5.628184-78.31874 8.624425-119.263268 8.624425-61.072961 0-120.331599-6.643304-174.86154-19.034519L340.924181 148.093129c90.6373 1.968841 151.21191 23.141046 185.006598 64.763003 51.221592 63.084781 33.987069 159.030993 14.029528 270.12623l-2.232854 12.435217c-29.410843 164.456562-72.281233 266.744203-131.058918 312.693722-40.674375 31.80231-97.511871 31.80231-138.186246 0-58.778708-45.949518-101.649098-148.237159-131.058918-312.693722l-2.232854-12.458753c-19.951401-111.082958-37.185924-207.016891 14.035668-270.102694 29.912263-36.842093 80.761372-57.685817 155.312298-63.35391l0-115.849518c-50.852178-14.603603-96.535637-34.531468-134.205585-59.125609-8.439206-5.513574-10.861372-16.900925-5.41329-25.432229 5.449106-8.531304 16.695241-10.956539 25.157983-5.472642 79.389118 51.834552 198.100824 81.56569 325.70813 81.56569 131.415029 0 252.277724-31.168883 331.606467-85.505419 3.127224-2.143826 6.675026-3.167133 10.18599-3.167133 5.833869 0 11.561313 2.825348 15.07944 8.076956 5.638417 8.405437 3.464915 19.839861-4.856611 25.539676-51.913347 35.56603-119.885438 61.819974-196.365296 76.959789l0 100.670817C692.004165 138.429025 714.378755 133.384126 737.19439 133.384126zM322.729797 599.428467c-10.050913 0-18.194384-8.231475-18.194384-18.391882l0-106.179274-60.614519 47.508014c-7.941879 6.219655-19.36607 4.759397-25.52535-3.269463-6.152117-8.027837-4.708232-19.577894 3.233648-25.803689l82.906222-64.97892 0-102.592586L191.360817 414.4188c-7.9296 6.227842-19.35993 4.76656-25.52535-3.26844-6.15314-8.027837-4.708232-19.576871 3.233648-25.803689L304.535413 279.178653l0-92.724845c-62.231343 5.015224-104.120382 21.328771-127.187751 49.738821-40.537252 49.926086-24.701588 138.095171-6.359848 240.197594l2.238994 12.477172c27.349905 152.948461 66.887386 250.567779 117.510344 290.147216 13.573133 10.607592 30.203906 15.907295 46.838771 15.907295 16.629749 0 33.265638-5.305843 46.833655-15.907295 50.625004-39.579437 90.160439-137.198755 117.510344-290.147216l2.232854-12.458753c18.34788-102.107539 34.18866-190.289927-6.349615-240.216014-26.631544-32.801057-78.238922-49.541323-156.881027-51.27992l0 93.895507 135.466298 106.174158c7.941879 6.225795 9.386788 17.774829 3.233648 25.803689-6.158257 8.026814-17.582447 9.488095-25.524327 3.26844l-113.174596-88.702228L340.923158 427.953048l82.911338 64.979944c7.941879 6.226818 9.386788 17.774829 3.233648 25.803689-6.16542 8.027837-17.59575 9.489118-25.52535 3.26844l-60.619636-47.508014L340.923158 581.036585C340.922135 591.196992 332.778664 599.428467 322.729797 599.428467z"  horiz-adv-x="1024" />

    
    <glyph glyph-name="fanhui2" unicode="&#58924;" d="M222.4 384 478.4 640 516.4 602.2 325.6 411.4 801.6 411.4 801.6 356.6 325.6 356.6 516.4 165.8 478.4 128Z"  horiz-adv-x="1024" />

    
    <glyph glyph-name="yule1" unicode="&#59033;" d="M909.135926-24.271544 684.514075-24.271544c-0.206708 0.684592-0.446162 1.36509-0.730641 2.037403l-50.870598 120.131031c37.015032 14.876826 70.860884 36.009122 100.236935 62.078871l21.500687-21.499663-24.105001-24.105001c-7.79043-7.79043-7.79043-20.421098 0-28.211529 3.895727-3.89368 8.999978-5.842055 14.105253-5.842055s10.209526 1.948375 14.105253 5.842055l76.41846 76.41846c7.79043 7.79043 7.79043 20.421098 0 28.211529-7.792477 7.788383-20.419052 7.788383-28.211529 0l-24.102954-24.102954-21.439288 21.439288c50.609655 56.55404 82.84073 129.873929 87.193875 210.493062l28.603455 0 0-33.911344c0-11.016915 8.931416-19.947308 19.947308-19.947308s19.947308 8.930393 19.947308 19.947308L917.112598 472.425935c0 11.016915-8.931416 19.947308-19.947308 19.947308s-19.947308-8.930393-19.947308-19.947308l0-33.911344-28.754904 0c-4.828982 79.310324-36.633339 151.443178-86.342484 207.331046l20.738323 20.738323 24.102954-24.101931c3.895727-3.894703 8.999978-5.842055 14.105253-5.842055 5.106298 0 10.209526 1.948375 14.105253 5.843078 7.79043 7.79043 7.79043 20.420075 0 28.210505l-76.41846 76.416414c-7.792477 7.79043-20.419052 7.789407-28.211529-0.001023-7.79043-7.79043-7.79043-20.420075 0-28.210505l24.103978-24.102954-20.709671-20.709671c-56.417941 50.376341-129.473817 82.480526-209.794144 86.912465L524.142551 789.593552l33.911344 0c11.015891 0 19.947308 8.930393 19.947308 19.947308s-8.931416 19.947308-19.947308 19.947308L450.338638 829.488167c-11.015891 0-19.947308-8.930393-19.947308-19.947308s8.931416-19.947308 19.947308-19.947308l33.911344 0 0-28.694529c-79.846536-4.76656-152.438854-36.870746-208.53343-87.070055l-20.966521 20.966521 24.102954 24.102954c7.79043 7.79043 7.79043 20.421098 0 28.211529-7.792477 7.79043-20.419052 7.79043-28.211529 0l-76.416414-76.416414c-7.79043-7.79043-7.79043-20.421098 0-28.211529 3.894703-3.894703 9.001001-5.842055 14.105253-5.842055s10.210549 1.947352 14.105253 5.842055l24.102954 24.102954 21.026896-21.026896c-49.562812-55.847959-81.264838-127.869273-86.085634-207.043497l-30.30419 0 0 33.911344c0 11.016915-8.930393 19.947308-19.947308 19.947308s-19.947308-8.930393-19.947308-19.947308l0-107.717304c0-11.016915 8.930393-19.947308 19.947308-19.947308s19.947308 8.930393 19.947308 19.947308L131.175575 398.618952l30.153764 0c4.344958-80.482009 36.475749-153.690358 86.938048-210.204489l-21.727861-21.727861-24.102954 24.102954c-7.79043 7.786337-20.421098 7.788383-28.210505 0-7.79043-7.79043-7.791453-20.421098-0.001023-28.211529l76.416414-76.41846c3.895727-3.89368 8.999978-5.842055 14.105253-5.842055 5.104251 0 10.209526 1.948375 14.105253 5.842055 7.79043 7.79043 7.79043 20.421098 0 28.211529l-24.102954 24.103978 21.756513 21.756513c30.93557-27.514657 66.845431-49.541323 106.199741-64.549132l-47.684022-118.233821c-0.229221-0.568958-0.420579-1.144056-0.594541-1.720178L111.228267-24.271544c-11.016915 0-19.947308-8.931416-19.947308-19.947308s8.930393-19.947308 19.947308-19.947308l797.907659 0c11.015891 0 19.947308 8.931416 19.947308 19.947308S920.151817-24.271544 909.135926-24.271544zM617.355513 134.633582l-83.647095 197.532889c6.540973 2.212388 12.750395 5.145184 18.523889 8.725732l152.672168-152.671145C679.160137 165.730834 649.610124 147.499611 617.355513 134.633582zM454.918957 417.380248c0 27.600615 22.454408 50.053999 50.053999 50.053999 25.588795 0 46.739511-19.305695 49.687656-44.11473-0.373507-1.52575-0.593518-3.111874-0.593518-4.753257 0-1.882883 0.278339-3.697205 0.766456-5.423523-2.160199-25.622564-23.688515-45.815465-49.860595-45.815465C477.373365 367.327272 454.918957 389.780657 454.918957 417.380248zM484.249983 113.835907c-16.492626 1.11438-32.632211 3.532453-48.307216 7.182586l48.307216 119.777991L484.249983 113.835907zM524.145621 252.440685l55.108109-130.137942c-17.803481-4.483104-36.225039-7.385201-55.108109-8.565073L524.145621 252.440685zM733.176378 216.371188 580.664869 368.880651c5.760191 8.959046 9.983375 18.99154 12.273535 29.738301l215.703737 0C804.385187 328.992175 776.612657 265.625986 733.176378 216.371188zM808.490691 438.514591l-216.101803 0c-2.295276 9.492188-6.094812 18.399045-11.140735 26.456558l152.629189 152.629189C776.422322 569.020924 803.780413 506.835629 808.490691 438.514591zM705.694467 645.839497 553.141002 493.286032c-8.759501 5.579065-18.537192 9.685593-28.995381 11.965519L524.145621 721.02385C593.474616 716.691171 656.57884 689.045531 705.694467 645.839497zM484.249983 720.925612l0-216.032218c-10.006911-2.369977-19.367093-6.411013-27.777647-11.819187L303.96185 645.58367C352.754113 688.612673 415.393755 716.271616 484.249983 720.925612zM275.81172 617.311767l152.671145-152.671145c-4.942569-7.969509-8.665357-16.764825-10.92891-26.126031L201.454198 438.514591C206.15629 506.69953 233.412051 568.77533 275.81172 617.311767zM201.303772 398.618952l215.70169 0c2.261507-10.613732 6.407943-20.531616 12.059664-29.40675L276.512684 216.659761C233.222739 265.873626 205.552539 329.129298 201.303772 398.618952zM304.751842 188.476885 457.381032 341.105051c6.344498-3.972475 13.208836-7.184633 20.478404-9.488095L397.630183 132.688277C363.291097 145.678126 331.897086 164.703435 304.751842 188.476885zM420.865373 83.633025c20.467147-5.15951 41.657772-8.473999 63.384609-9.770528l0-30.312376-33.911344 0c-11.015891 0-19.947308-8.931416-19.947308-19.947308s8.931416-19.947308 19.947308-19.947308l107.717304 0c11.015891 0 19.947308 8.931416 19.947308 19.947308s-8.931416 19.947308-19.947308 19.947308l-33.911344 0 0 30.213116c24.365944 1.344624 48.058552 5.244444 70.827115 11.420097l46.350654-109.455901L377.347231-24.272567 420.865373 83.633025z"  horiz-adv-x="1024" />

    
    <glyph glyph-name="shenghuo1" unicode="&#58889;" d="M926.208 548.352l-36.864 0c0 86.528-69.632 197.632-142.848 197.632L293.376 745.984c-78.848 0-142.848-64-142.848-142.848l0-54.784-36.864 0L113.664 603.136c0 102.4 77.312 179.712 179.712 179.712l455.68 0c107.52 0.512 185.344-137.728 185.344-234.496L926.208 548.352zM931.84 548.352M925.696-7.168l-152.064 0 0 142.336 36.864 0 0-105.984 78.848 0L889.344 296.96l5.12 6.144c108.544 124.928 96.256 164.352 73.216 209.408-8.192 15.872-31.232 17.92-48.128 15.36-33.28-5.12-69.632-29.696-76.288-73.728-6.144-38.912-20.48-64-44.032-78.336-27.648-17.408-55.296-12.288-58.368-11.264l-6.656 2.048-4.096 5.12c-81.408 105.984-201.216 101.376-202.24 101.376l-2.048 39.424c5.632 0 138.24 5.632 232.96-111.616 5.12-0.512 11.776 0.512 18.432 4.608 12.288 7.68 19.968 25.6 24.064 51.2 9.728 64.512 62.976 101.376 111.616 109.056 41.984 6.656 77.312-8.192 92.672-38.4 32.768-66.048 29.696-122.88-79.872-250.368L925.696-7.168 925.696-7.168zM251.392-7.168 102.4-7.168l0 285.696C-7.168 406.016-10.752 463.36 22.016 528.896c15.36 30.208 50.688 45.056 92.672 38.4 48.64-7.68 102.4-44.544 111.616-109.056 4.096-26.112 12.288-44.032 24.576-51.712 6.656-4.096 13.312-4.608 17.92-4.608 95.744 117.248 257.024 111.616 264.192 111.616l-1.536-39.424c-1.536 0-153.088 7.168-233.984-98.304l-4.096-5.12-6.656-2.048c-3.072-1.024-31.232-8.704-58.368 8.704-23.552 14.336-38.4 41.984-44.032 81.408-6.656 43.52-48.64 68.096-81.92 73.728-17.408 3.072-40.448 0.512-48.64-15.36-22.528-45.568-29.696-90.112 79.36-215.04l5.12-6.144 0-264.704 75.776 0 0 105.472L250.88 136.704 251.392-7.168 251.392-7.168zM136.192 163.328l768.512 0 0-41.472L136.192 121.856 136.192 163.328 136.192 163.328z"  horiz-adv-x="1028" />

    
    <glyph glyph-name="fanhui5" unicode="&#58943;" d="M538.622846-54.291255c257.534448 171.658591 308.738643 462.119963-75.504648 453.027887l0-225.514173L121.893676 514.470517 463.118198 855.718575l0-220.701564c218.259956 5.67321 470.02705-96.270601 470.02705-280.69596C933.146271 82.880895 768.337691 21.237953 538.622846-54.291255"  horiz-adv-x="1024" />

    
    <glyph glyph-name="pinglun-copy" unicode="&#58978;" d="M512.017 18.523c-32.394 0-64.095 2.69-94.805 7.55l-222.31-129.814v216.182c-115.995 78.27-190.331 198.367-190.331 333.314 0 235.888 227.216 427.235 507.447 427.235 280.367 0 507.578-191.349 507.578-427.235 0-235.885-227.212-427.233-507.579-427.233v0zM512.017 811.996c-245.164 0-444.050-164.096-444.050-366.239 0-124.156 75.038-233.729 189.625-299.845l-2.098-141.697 149.372 86.364c34.366-7.008 70.129-11.067 107.151-11.067 245.31 0 444.202 163.83 444.202 366.246 0 202.142-198.891 366.238-444.202 366.238v0zM765.883 384.761c-35.060 0-63.54 27.254-63.54 60.996 0 33.734 28.48 60.997 63.54 60.997 35.056 0 63.398-27.263 63.398-60.997 0.001-33.742-28.341-60.996-63.398-60.996v0zM512.017 384.761c-34.93 0-63.389 27.254-63.389 60.996 0 33.734 28.458 60.997 63.389 60.997 35.071 0 63.539-27.263 63.539-60.997 0.001-33.742-28.467-60.996-63.539-60.996v0zM258.293 384.761c-35.061 0-63.392 27.254-63.392 60.996 0 33.734 28.331 60.997 63.392 60.997 35.066 0 63.539-27.263 63.539-60.997 0-33.742-28.474-60.996-63.539-60.996v0zM258.293 384.761z"  horiz-adv-x="1024" />

    
    <glyph glyph-name="shanchu1" unicode="&#58966;" d="M923.401838 665.566794 713.433732 665.566794 713.433732 787.678946c0 24.411993-18.426675 44.201711-41.156352 44.201711L345.17346 831.880657c-22.729677 0-41.156352-19.789719-41.156352-44.201711l0-122.113175L97.459682 665.56577c-22.729677 0-41.156352-19.789719-41.156352-44.201711s18.426675-44.201711 41.156352-44.201711l102.645798 0 0-545.833573c0-24.411993 18.426675-44.201711 41.156352-44.201711l537.512047 0c22.729677 0 41.156352 19.789719 41.156352 44.201711L819.930231 577.163371l103.470583 0c22.729677 0 41.156352 19.789719 41.156352 44.201711S946.131515 665.566794 923.401838 665.566794zM386.329812 743.478258l244.790192 0 0-77.911464L386.329812 665.566794 386.329812 743.478258zM737.617527 75.530486 282.419208 75.530486 282.419208 577.163371l62.754253 0 327.10392 0 65.340147 0L737.617527 75.530486zM631.120005 496.547309c-22.730701 0-41.156352-19.789719-41.156352-44.201711l0-221.7525c0-24.411993 18.426675-44.201711 41.156352-44.201711 22.730701 0 41.156352 19.789719 41.156352 44.201711L672.276357 452.346621C672.27738 476.758614 653.850705 496.547309 631.120005 496.547309zM508.72542 537.479557c-22.730701 0-41.156352-19.789719-41.156352-44.201711l0-313.850058c0-24.411993 18.426675-44.201711 41.156352-44.201711 22.730701 0 41.156352 19.789719 41.156352 44.201711L549.881772 493.278869C549.881772 517.690862 531.456121 537.479557 508.72542 537.479557zM374.684588 496.547309c-22.730701 0-41.156352-19.789719-41.156352-44.201711l0-221.7525c0-24.411993 18.426675-44.201711 41.156352-44.201711s41.156352 19.789719 41.156352 44.201711L415.84094 452.346621C415.841963 476.758614 397.415288 496.547309 374.684588 496.547309z"  horiz-adv-x="1024" />

    
    <glyph glyph-name="xinjian" unicode="&#58940;" d="M631.436-87.674l-533.843 0c-29.658 0-53.831 25.392-53.831 56.269l0 613.468 265.497 278.16 391.918 0c33.183 3.724 57.483-21.733 53.831-52.68l0.342-317.43-0.417 0 0-48.143-73.941 0 0 344.449-355.754 0 0-222.229-207.333 0 0-577.918 513.531 0 0-73.946zM991.997 216.761l-169.691 0 0 169.688-134.545 0 0-169.622-169.884 0 0-134.545 169.683 0 0-169.884 134.611 0 0 169.688 169.828 0 0 134.677z"  horiz-adv-x="1025" />

    
    <glyph glyph-name="pinglun-copy1" unicode="&#58882;" d="M300.418 510.618c-29.078 0-52.655-24.45-52.655-54.622s23.576-54.623 52.655-54.623c29.078 0 52.655 24.45 52.655 54.623 0 30.171-23.576 54.622-52.655 54.622zM511.040 510.618c-29.078 0-52.655-24.45-52.655-54.622s23.577-54.623 52.655-54.623 52.655 24.45 52.655 54.623c0 30.171-23.577 54.622-52.655 54.622zM721.662 510.618c-29.078 0-52.656-24.45-52.656-54.622s23.577-54.623 52.656-54.623 52.655 24.45 52.655 54.623c0 30.171-23.577 54.622-52.655 54.622zM826.97 783.715h-631.862c-58.158 0-105.309-48.914-105.309-109.244v-409.646c0-60.331 48.207-115.942 107.701-115.942h160.485c27.973-29.799 143.749-149.663 143.749-149.663 5.141-5.347 13.472-5.347 18.613 0 0 0 84.767 96.107 139.995 149.663h164.238c59.495 0 107.702 55.612 107.702 115.942v409.646c0 60.33-47.153 109.244-105.311 109.244zM879.627 264.825c0-30.16-25.3-61.809-55.047-61.809h-161.513c-19.565 0-37.152-20.119-37.152-20.119l-113.409-117.626-113.384 117.626c0 0-21.598 20.119-40.108 20.119h-161.513c-29.748 0-55.046 31.649-55.046 61.809v409.646c0 30.172 23.576 54.623 52.655 54.623h631.862c29.078 0 52.657-24.452 52.657-54.623v-409.646z"  horiz-adv-x="1024" />

    
    <glyph glyph-name="set" unicode="&#59069;" d="M835.499323 277.842215l-23.273053 0c-3.729951-10.56359-8.039093-20.948101-12.857842-31.05939l16.440437-16.46295c34.161031-34.154891 34.161031-89.753163 0-123.908054l-26.227338-26.227338c-16.558118-16.554024-38.549991-25.659403-61.956074-25.659403-23.390733 0-45.393863 9.114588-61.939701 25.659403l-16.46909 16.452717c-10.115382-4.839215-20.512173-9.141194-31.05939-12.874215l0-23.271006c0-48.308239-39.309284-87.60729-87.615477-87.60729L493.44183-27.115312c-48.319495 0-87.615477 39.299051-87.615477 87.60729l0 23.271006c-10.54824 3.733021-20.929682 8.036024-31.05939 12.874215L358.314247 80.184483c-16.562211-16.544815-38.565341-25.659403-61.956074-25.659403-23.406083 0-45.411259 9.114588-61.956074 25.659403l-26.225291 26.227338c-34.162054 34.171264-34.162054 89.744977 0 123.908054l16.455787 16.46295c-4.835122 10.102079-9.128915 20.48659-12.874215 31.05939l-23.273053 0c-48.305169 0-87.598081 39.300075-87.598081 87.608314l0 37.109176c0 48.308239 39.292911 87.608314 87.598081 87.608314l23.273053 0c3.745301 10.5728 8.039093 20.942985 12.874215 31.063483l-16.455787 16.45374c-16.559141 16.546861-25.659403 38.549991-25.659403 61.948911 0 23.403013 9.100262 45.410236 25.659403 61.953004l26.225291 26.234501c16.543791 16.546861 38.549991 25.664519 61.956074 25.664519 23.390733 0 45.393863-9.117658 61.956074-25.664519l16.452717-16.457834c10.114358 4.828982 20.484543 9.135054 31.05939 12.876262l0 23.260773c0 48.308239 39.294958 87.61343 87.615477 87.61343l37.099966 0c48.306192 0 87.615477-39.305191 87.615477-87.61343l0-23.260773c10.547217-3.731998 20.944008-8.03807 31.05939-12.876262l16.46909 16.457834c16.545838 16.546861 38.548968 25.664519 61.939701 25.664519 23.406083 0 45.397956-9.117658 61.956074-25.664519l26.227338-26.234501c16.558118-16.542768 25.656333-38.549991 25.656333-61.953004 0-23.39892-9.099239-45.402049-25.656333-61.948911L799.367405 521.231501c4.835122-10.125615 9.128915-20.509103 12.857842-31.063483l23.273053 0c48.304146 0 87.61343-39.300075 87.61343-87.608314l0-37.109176C923.112754 317.14229 883.803469 277.842215 835.499323 277.842215zM884.997668 402.559705c0 27.28953-22.213931 49.501414-49.498344 49.501414l-37.055964 0c-8.384971 0-15.784498 5.489014-18.215874 13.508665-5.294586 17.362436-12.32163 34.323737-20.902052 50.399877-3.965312 7.40669-2.608407 16.514115 3.327792 22.450315l26.211988 26.216081c9.337669 9.346879 14.483876 21.776979 14.483876 34.998095 0 13.225209-5.146207 25.654286-14.483876 35.007305l-26.227338 26.239618c-18.707061 18.681478-51.30448 18.681478-70.010517 0l-26.226315-26.220175c-5.907547-5.955642-15.007809-7.308453-22.451338-3.330862-16.051581 8.585539-33.014928 15.609513-50.393737 20.886703-8.025791 2.440585-13.515828 9.848299-13.515828 18.238386l0 37.047778c0 27.294646-22.211884 49.501414-49.498344 49.501414L493.44183 757.004319c-27.299763 0-49.499367-22.206768-49.499367-49.501414l0-37.047778c0-8.391111-5.490038-15.793708-13.515828-18.229177-17.407462-5.29561-34.355459-12.329816-50.377364-20.895913-7.414877-3.958148-16.543791-2.606361-22.467711 3.330862l-26.210965 26.220175c-18.708084 18.681478-51.318806 18.681478-70.025866 0l-26.228361-26.239618c-9.337669-9.353019-14.499226-21.782096-14.499226-35.007305 0-13.221116 5.161556-25.651216 14.499226-34.998095l26.228361-26.216081c5.936199-5.937223 7.2798-15.052834 3.325745-22.455431-8.578376-16.037255-15.60542-32.995485-20.915355-50.395784-2.431376-8.018627-9.828856-13.508665-18.213827-13.508665l-37.056987 0c-27.285436 0-49.497321-22.211884-49.497321-49.501414l0-37.109176c0-27.28953 22.211884-49.500391 49.497321-49.500391l37.056987 0c8.384971 0 15.782451-5.489014 18.213827-13.507642 5.309936-17.428951 12.33698-34.382065 20.915355-50.395784 3.954055-7.402597 2.610454-16.519232-3.325745-22.455431l-26.228361-26.210965c-19.301602-19.307741-19.301602-50.710962 0-70.016657l26.228361-26.233478c18.706037-18.681478 51.316759-18.681478 70.025866 0l26.210965 26.216081c3.669576 3.665483 8.547677 5.582135 13.487176 5.582135 3.056616 0 6.129604-0.73985 8.965186-2.25639 16.080234-8.588609 33.028231-15.611559 50.377364-20.878516 8.04114-2.439562 13.531178-9.840112 13.531178-18.23634l0-37.064151c0-27.288506 22.198581-49.494251 49.499367-49.494251l37.099966 0c27.28646 0 49.498344 22.205745 49.498344 49.494251l0 37.064151c0 8.396227 5.490038 15.797801 13.515828 18.23634 17.378809 5.266957 34.32783 12.290931 50.393737 20.878516 7.384178 3.976568 16.514115 2.623757 22.451338-3.325745L692.628382 107.129158c18.706037-18.681478 51.303456-18.681478 70.010517 0l26.227338 26.233478c19.301602 19.305695 19.301602 50.708915 0 70.016657l-26.211988 26.210965c-5.936199 5.937223-7.293103 15.052834-3.327792 22.450315 8.565073 16.056698 15.607466 33.009811 20.902052 50.4009 2.431376 8.018627 9.829879 13.507642 18.215874 13.507642l37.055964 0c27.284413 0 49.498344 22.210861 49.498344 49.500391L884.998691 402.559705zM511.986185 243.126552c-77.68122 0-140.875494 63.193251-140.875494 140.877541 0 77.686337 63.194274 140.878564 140.875494 140.878564 77.691453 0 140.89903-63.192228 140.89903-140.878564C652.886239 306.319803 589.677639 243.126552 511.986185 243.126552zM511.986185 486.770642c-56.661488 0-102.772688-46.104037-102.772688-102.766548 0-56.666604 46.111201-102.769618 102.772688-102.769618 56.671721 0 102.784968 46.103014 102.784968 102.769618C614.772176 440.666604 568.657906 486.770642 511.986185 486.770642z"  horiz-adv-x="1024" />

    
    <glyph glyph-name="fanhui3" unicode="&#59182;" d="M277.358247 407.033927 277.358247 407.033927c-12.980999-12.707384-12.980999-33.341594 0-46.085754l422.34505-414.845735c12.980199-12.712781 34.010541-12.712781 46.936177 0 12.980199 12.706585 12.980199 33.367577 0 46.079558L347.757916 383.995147 746.638475 775.795707c12.980199 12.712781 12.980199 33.372973 0 46.085754-12.930033 12.737764-33.961374 12.737764-46.936177 0L277.358247 407.033927 277.358247 407.033927zM277.358247 407.033927 277.358247 407.033927c-12.980999-12.707384-12.980999-33.341594 0-46.085754l422.34505-414.845735c12.980199-12.712781 34.010541-12.712781 46.936177 0 12.980199 12.706585 12.980199 33.367577 0 46.079558L347.757916 383.995147 746.638475 775.795707c12.980199 12.712781 12.980199 33.372973 0 46.085754-12.930033 12.737764-33.961374 12.737764-46.936177 0L277.358247 407.033927 277.358247 407.033927z"  horiz-adv-x="1024" />

    
    <glyph glyph-name="xiugai" unicode="&#59042;" d="M383.754 249.754l181.095 51.415L435.497 429.729 383.754 249.754zM867.434 601.908 738.081 730.471 453.5 447.641l129.352-128.55L867.434 601.908zM829.739 125.828c0-44.671-36.226-80.913-80.911-80.913L263.344 44.915c-44.697 0-80.914 36.242-80.914 80.913L182.43 611.313c0 44.697 36.217 80.913 80.914 80.913l323.655 0 80.915 80.915L236.373 773.141c-74.487 0-134.856-60.369-134.856-134.857l0-539.426c0-74.489 60.37-134.856 134.856-134.856l539.426 0c74.474 0 134.856 60.369 134.856 134.856L910.655 530.4l-80.916-80.915L829.739 125.828zM927.554 709.901l-80.85 80.347c-13.395 13.315-35.835 12.59-50.124-1.606l-38.812-38.561 129.354-128.562 38.81 38.573C940.221 674.289 940.946 696.585 927.554 709.901z"  horiz-adv-x="1024" />

    
    <glyph glyph-name="wenjian-copy" unicode="&#58909;" d="M926.095-35.681l-94.119-22.349c-48.558-11.549-50.984-10.374-62.795 36.397l-9.562 35.472 195.462 46.497 6.324-23.423c14.85-58.869 20.499-59.294-35.31-72.593v0zM635.377 472.682c-11.774 46.772-10.174 48.922 38.348 60.471l94.155 22.373c48.509 11.55 50.959 10.35 59.709-24.323l114.467-422.744-195.474-46.471-111.206 410.695zM502.613-64.28h-58.496c-49.959 0-64.87 1.726-64.87 49.922v732.672h188.225v-732.672c0-48.197-7.401-49.922-64.858-49.922v0zM379.246 781.809c0 48.147 14.912 49.846 64.87 49.846h58.496c49.959 0 64.858-1.7 64.858-49.846v-38.623h-188.225v38.623zM250.144-64.28h-148.114c-49.983 0-52.083 1.726-52.083 49.922v41.896h252.257v-41.896c-0.001-48.197-2.101-49.922-52.060-49.922v0zM49.945 96.084h252.257v-43.647h-252.257v43.647zM49.945 482.556h252.257v-361.574l-252.257 0v361.574zM49.945 595.122c0 48.172 2.1 49.872 52.083 49.872h148.114c49.959 0 52.059-1.7 52.059-49.872v-62.795h-252.256v62.795zM49.945 595.122z"  horiz-adv-x="1024" />

    
    <glyph glyph-name="shenghuo2" unicode="&#58961;" d="M161.234243 174.841016l346.55127 2.287865 0.60207-72.850423-117.764817-0.963311 1.444967-142.329257 395.559737-1.444967 26.852305 286.344309-19.868297 2.528692c0 0-64.903104-65.38476-172.553151-19.627469-53.825024 22.878645-73.572907 68.395108-78.871119 108.372531-15.05174 115.476952 92.477893 160.030103 89.226717 176.045155-1.926623 9.633114-45.998119 50.453434-33.836312 108.011289 10.837253 51.296331 35.401693 76.462841 67.431797 93.441204 32.030103 16.978363 61.290687 13.968015 61.290687 13.968015-29.260583 210.363123 295.495767 182.908749 244.801505 1.685795 0 0 88.022578-2.047037 111.142051-85.734713 23.119473-83.687676-29.140169-133.53904-29.140169-133.53904s89.9492-49.490122 86.938852-153.527752c-2.889934-104.037629-87.540922-147.747883-131.251176-148.109125-43.710254-0.240828-76.824083 14.570085-77.66698 14.931326l-48.767639 23.360301L866.980245 248.173095l20.831609-286.946378 305.610536 0.842897 0.842897-72.248354-1032.549389 0.120414-0.60207 69.840075 130.167451-0.120414 0 145.700847L160.150517 104.760113 161.234243 174.841016 161.234243 174.841016zM161.234243 174.841016"  horiz-adv-x="1356" />

    
    <glyph glyph-name="shenghuoquan" unicode="&#58896;" d="M870.719356 736.509519C776.113055 832.989914 649.662348 886.350947 514.666785 886.756157l-1.575252 0c-135.106996 0-261.810958-52.216316-356.781948-147.030287C61.394313 644.962551 9.12228 518.597951 9.12228 383.865774c0.395079-133.683697 52.125144-259.273333 145.672835-353.621313 92.387778-93.177937 215.151078-146.057784 345.65388-148.889186 3.758319-0.070912 7.481181-0.116498 11.21924-0.116498 133.739413 0 259.587371 51.856693 354.35069 145.986872 93.765491 93.172872 146.609882 216.761786 148.787883 348.019291C1017.070917 511.152226 965.898015 639.446636 870.719356 736.509519zM979.599163 375.83756c-4.204049-253.306623-214.107663-459.391137-467.941059-459.391137-3.484802 0-6.944279 0.050651-10.454407 0.106368-255.433973 5.53111-456.124135 210.835596-456.868708 467.35857 0 257.860165 210.293629 467.637151 468.771738 467.637151l1.46382 0c125.488334-0.374819 243.054821-49.987664 331.025815-139.690929C934.109325 621.576894 981.706253 502.242681 979.599163 375.83756zM485.116879 208.7494c12.414608-17.895067 33.151207-18.092607 46.062196-0.6534 39.533257 53.472466 79.1121 106.88415 118.387036 160.50857 30.253958 41.326309 40.728625 87.434092 32.183769 137.933332-14.820539 87.520199-98.344359 151.862411-185.499869 142.811042-89.171428-9.253973-156.385562-84.238001-156.446344-174.488299-0.157019-36.509381 10.277127-69.95943 30.709819-99.965197C408.375254 319.290567 446.773925 264.040244 485.116879 208.7494zM481.535839 610.681822c76.047703 18.274951 154.496273-35.243101 165.487582-112.840731 1.119391-7.906651 2.208392-15.787977 1.798117-20.417496-0.01013-34.306054-9.172931-62.270578-27.452947-87.150445-36.099106-49.121528-72.395752-98.080973-108.464467-147.207566-3.246742-4.391459-4.766277-5.343701-8.367577-0.081042-35.167124 51.421092-71.387793 102.153329-105.774889 154.085998C345.025805 478.213754 388.099581 588.228148 481.535839 610.681822zM688.157256 234.085128c-25.117927 18.467425-54.201843 27.047738-84.16709 33.439918-2.709839 0.592619-4.077421-0.19754-5.480459-2.12735-6.924018-9.466708-13.908818-18.903026-21.557148-29.301716 18.578858-3.074527 35.516617-6.539069 51.917474-12.146156 15.088991-5.166422 29.985507-10.864681 42.096208-21.704037 10.266997-9.208387 10.277127-17.023866 0.288712-26.404468-10.013741-9.395797-22.25107-15.154837-35.010106-19.419668-74.183739-24.743108-149.294395-25.198969-224.855847-7.263381-20.34152 4.827059-40.075225 11.740947-56.673621 25.138188-11.801728 9.52749-11.842249 18.816919-0.455861 28.709097 3.489867 3.039072 7.471051 5.591892 11.477561 7.952238 12.829948 7.577419 26.728635 12.612147 41.073053 16.400857 11.325607 2.98842 22.752516 5.53111 34.883478 8.448619-6.858172 10.013741-13.397241 19.460189-19.804617 28.987679-1.49421 2.223587-3.353109 2.492039-5.667869 1.939941-30.340065-7.081037-60.077382-15.787977-84.582429-36.296646-28.957288-24.236596-29.007939-58.081725-0.42547-82.794442 16.74022-14.471046 36.544837-23.238768 57.478975-29.251065 77.471002-22.25107 155.45358-22.68667 233.598243-3.79884 25.492746 6.16425 49.916752 15.311856 70.288662 32.588978 16.355271 13.822711 25.659895 30.846577 20.36178 53.016605C709.415562 214.792088 699.918463 225.418708 688.157256 234.085128zM511.551737 384.002533c49.314003-0.42547 90.579531 40.247439 90.934089 89.632353 0.354558 48.554235-39.720667 89.156232-87.185901 90.77707-46.219215 1.570187-92.43843-34.716329-93.426128-89.50066C420.992467 425.9012 462.085781 384.438133 511.551737 384.002533zM511.886035 528.94599c29.747446 0.41534 54.490555-24.246727 54.566532-54.379122 0.081042-30.709819-23.466698-54.460164-54.034694-54.531076-30.471758-0.075977-54.688094 23.74528-54.875504 53.973913C457.344829 503.868584 481.733379 528.53065 511.886035 528.94599z"  horiz-adv-x="1024" />

    
    <glyph glyph-name="file-copy" unicode="&#58887;" d="M64.179-63.616c-42.684 39.408-63.974 90.178-63.974 152.515 0 62.337 21.291 113.209 63.974 152.515l617.635 602.792c34.393 34.597 76.257 51.794 125.492 51.794s90.997-17.196 125.492-51.691c34.393-34.393 51.589-76.257 51.589-125.492 0-45.959-17.196-87.722-51.691-125.492l-462.561-445.364c-26.204-26.204-58.242-39.306-95.91-39.306-36.133 0-68.888 13.102-98.469 39.408-26.204 29.479-39.306 62.234-39.306 98.367 0 36.030 13.102 68.888 39.408 98.469l319.872 310.046c11.464 8.189 21.291 8.189 29.479 0 8.189-11.464 8.189-21.291 0-29.582l-319.872-310.046c-19.653-16.377-29.479-39.408-29.479-68.888s9.826-52.51 29.479-68.888c16.377-19.653 39.408-29.582 68.888-29.582 29.479 0 52.51 9.826 68.888 29.582l462.561 442.908c26.204 29.582 39.408 62.337 39.408 98.469 0 36.030-13.102 68.888-39.408 98.469-29.479 26.102-62.337 39.204-98.367 39.204-36.133 0-68.888-13.204-98.469-39.408l-617.635-602.792c-34.393-34.393-51.589-76.257-51.589-125.492 0-49.235 17.196-90.997 51.691-125.492 34.495-34.495 76.257-51.691 125.492-51.691 45.959 0 87.722 17.196 125.492 51.691l489.686 474.844c11.464 8.189 21.291 8.189 29.479 0 8.189-11.464 8.189-21.291 0-29.582l-492.142-472.285c-39.408-42.684-90.281-63.974-152.617-63.974-62.337 0-113.107 21.291-152.515 63.974z"  horiz-adv-x="1024" />

    
    <glyph glyph-name="icon01" unicode="&#59296;" d="M968.397123-4.845099l7.490601 6.337335c7.890714 6.67298 12.668531 10.711969-19.007913 141.215232-54.892191 225.892797-272.682449 371.705744-516.530177 393.481699L440.349635 702.717925 60.234361 411.296693l380.115274-291.428396L440.349635 286.398078c157.997454 11.812023 296.882618-1.788739 389.831566-100.357685 45.899376-48.665373 101.20703-145.088446 114.448612-173.505659 1.874697-3.990894 5.336542-11.401678 13.68365-14.20042L968.397123-4.845099 968.397123-4.845099z"  horiz-adv-x="1024" />

    
    <glyph glyph-name="caizhuanhuan" unicode="&#58950;" d="M512-128C229.216-128 0 101.216 0 384 0 666.752 229.216 896 512 896s512-229.248 512-512C1024 101.216 794.784-128 512-128zM512 832C264.576 832 64 631.424 64 384s200.576-448 448-448 448 200.576 448 448S759.424 832 512 832zM752.64 512.736 591.36 512.736c-17.248 0-31.264 14.016-31.264 31.264 0 17.28 14.016 31.232 31.264 31.232l161.248 0c17.28 0 31.264-13.984 31.264-31.232C783.872 526.752 769.888 512.736 752.64 512.736zM432.608 512.736 271.36 512.736c-17.248 0-31.264 14.016-31.264 31.264 0 17.28 14.016 31.232 31.264 31.232l161.248 0c17.28 0 31.264-13.984 31.264-31.232C463.872 526.752 449.888 512.736 432.608 512.736zM677.376 192c-33.248 57.152-94.464 96-165.344 96s-132.096-38.848-165.376-96L288 192c37.984 93.792 116.608 160 224 160s186.016-66.208 224-160L677.376 192zM320 224c17.664 0 32-14.336 32-32s-14.336-32-32-32-32 14.336-32 32S302.336 224 320 224zM704 224c17.664 0 32-14.336 32-32s-14.336-32-32-32-32 14.336-32 32S686.336 224 704 224z"  horiz-adv-x="1024" />

    
    <glyph glyph-name="huodong2" unicode="&#58941;" d="M465.712279 890.20297c-114.092501-10.632151-225.449705-59.696614-312.824705-147.093103C65.491085 655.734868 16.395924 544.38892 5.815961 430.213531c125.123742-14.481829 258.306021-78.470189 367.54805-187.701986 109.262496-109.343337 173.353187-242.557338 187.803293-367.549074C675.403069-114.53636 786.525935-65.390034 874.044198 21.987013c87.375 87.386256 136.461975 198.719924 146.990772 312.805262-124.969223 14.47262-258.143315 78.499865-367.516328 187.80227C544.296055 631.825318 480.297462 765.029086 465.712279 890.20297L465.712279 890.20297zM1022.955716 397.990642c-3.719718 125.298727-53.253878 249.482051-148.851143 345.222579C778.486842 838.841186 654.199141 888.293481 528.850272 892.165672 542.977014 782.668839 601.059873 665.06128 698.547185 567.594435 795.973098 470.066191 913.547911 412.053939 1022.955716 397.990642L1022.955716 397.990642zM3.956613 367.145124c3.748371-125.347846 53.324486-249.54345 148.931984-345.172437 95.606475-95.626941 219.791845-145.285944 345.121272-148.950404-14.176884 109.293195-72.209602 226.948849-169.657005 324.413648C230.856343 294.906869 113.310184 352.930377 3.956613 367.145124L3.956613 367.145124z"  horiz-adv-x="1024" />

    
    <glyph glyph-name="shanchu2" unicode="&#59001;" d="M170.7008 45.3632c0-60.3136 47.8208-109.3632 106.7008-109.3632l469.2992 0c58.88 0 106.7008 49.0496 106.7008 109.3632L853.4016 635.0848 170.7008 635.0848 170.7008 45.3632zM213.2992 591.36l597.2992 0 0-545.8944c0-36.1472-28.672-65.6384-64-65.6384L277.2992-20.1728c-35.2256 0-64 29.4912-64 65.6384L213.2992 591.36zM874.7008 744.448 149.2992 744.448c-11.776 0-21.2992-9.6256-21.2992-21.2992l0-1.1264c0-11.776 9.6256-21.2992 21.2992-21.2992l725.2992 0c11.776 0 21.2992 9.6256 21.2992 21.2992l0 1.1264C896 734.9248 886.3744 744.448 874.7008 744.448zM405.2992 788.2752l213.2992 0c11.776 0 21.2992 9.6256 21.2992 21.2992l0 1.1264c0 11.776-9.6256 21.2992-21.2992 21.2992L405.2992 832c-11.776 0-21.2992-9.6256-21.2992-21.2992l0-1.1264C384 797.7984 393.6256 788.2752 405.2992 788.2752zM298.7008 111.0016c11.776 0 21.2992 9.6256 21.2992 21.2992L320 439.808c0 11.776-9.6256 21.2992-21.2992 21.2992-11.776 0-21.2992-9.6256-21.2992-21.2992l0-307.4048C277.2992 120.6272 286.9248 111.0016 298.7008 111.0016zM384 111.0016c11.776 0 21.2992 9.6256 21.2992 21.2992L405.2992 439.808c0 11.776-9.6256 21.2992-21.2992 21.2992-11.776 0-21.2992-9.6256-21.2992-21.2992l0-307.4048C362.7008 120.6272 372.224 111.0016 384 111.0016zM640 111.0016c11.776 0 21.2992 9.6256 21.2992 21.2992L661.2992 439.808c0 11.776-9.6256 21.2992-21.2992 21.2992-11.776 0-21.2992-9.6256-21.2992-21.2992l0-307.4048C618.7008 120.6272 628.224 111.0016 640 111.0016zM725.2992 111.0016c11.776 0 21.2992 9.6256 21.2992 21.2992L746.5984 439.808c0 11.776-9.6256 21.2992-21.2992 21.2992-11.776 0-21.2992-9.6256-21.2992-21.2992l0-307.4048C704 120.6272 713.6256 111.0016 725.2992 111.0016z"  horiz-adv-x="1024" />

    
    <glyph glyph-name="yule2" unicode="&#58937;" d="M903.966695 195.752592 602.093413 570.021717c0.403183 5.686513 0.868787 11.330046 0.868787 17.141402 0 135.12656-109.933785 245.060345-245.071601 245.060345-135.147026 0-245.081835-109.934808-245.081835-245.060345 0-135.136793 109.934808-245.070578 245.081835-245.070578 5.78168 0 11.455913 0.466628 17.132192 0.847298l374.235356-301.883515c5.028527-4.02978 11.085476-6.024204 17.119913-6.024204 7.011694 0 14.002922 2.671852 19.285229 7.976672l21.341051 21.340027c0.040932-8.228405-1.01819-16.927531-4.158716-25.454742-7.021927-18.96698-23.557532-34.07098-49.143257-44.804439-30.124088-12.68695-76.985372 9.289574-131.244136 34.70543-99.908454 46.840818-236.712213 110.995977-383.123794-3.734044-11.860119-9.29162-13.928221-26.476001-4.647857-38.311561 9.29162-11.837606 26.435069-13.916964 38.293141-4.626367 119.989815 94.065376 229.604328 42.642193 326.332347-2.714831 47.416939-22.234397 92.857874-43.532469 134.733611-43.532469 14.023388 0 27.665083 2.376117 40.828894 7.933693 40.030715 16.844643 66.655096 42.472324 79.118965 76.203566 13.035898 35.217083 6.576789 70.261227 0.044002 91.3925l47.985898 47.987944C911.876851 169.235658 912.726196 184.935222 903.966695 195.752592zM167.350984 587.163119c0 105.054661 85.473697 190.517101 190.539614 190.517101 105.055684 0 190.529381-85.46244 190.529381-190.517101s-85.473697-190.548824-190.529381-190.548824C252.824681 396.614296 167.350984 482.108458 167.350984 587.163119zM764.427638 98.888474 443.481975 357.790058c66.295915 24.865317 118.916367 77.476559 143.749962 143.752008l258.902608-320.93543-38.642089-38.651298c-3.53143-2.249227-6.417153-5.133927-8.528234-8.529257L764.427638 98.888474zM600.172667 380.10939c-10.660804 10.649548-27.918863 10.649548-38.568411 0-10.648524-10.648524-10.648524-27.918863 0-38.568411l59.093886-59.104119c5.325285-5.303796 12.304234-7.977695 19.284205-7.977695 6.970762 0 13.948687 2.673899 19.273972 7.977695 10.660804 10.649548 10.660804 27.91784 0 38.567387L600.172667 380.10939z"  horiz-adv-x="1024" />

    
    <glyph glyph-name="zhankai" unicode="&#58953;" d="M511.630075 39.316703 63.977615 407.174815l38.806841 39.322587L511.630075 113.198387 920.47774 446.497403l38.807864-39.322587L511.630075 39.316703 511.630075 39.316703zM511.630075 321.123974 63.977615 688.922734l38.806841 39.266305 408.844595-333.24171L920.47774 728.18904l38.807864-39.323611L511.630075 321.123974 511.630075 321.123974z"  horiz-adv-x="1024" />

    
    <glyph glyph-name="wenjian1" unicode="&#58890;" d="M-2490.0608-236.19072M668.73856 894.27968 240.49152 894.27968c-75.9552 0-137.74848-61.78816-137.74848-137.73824l0-745.08288c0-75.94496 61.79328-137.73312 137.74848-137.73312l543.02208 0c75.9552 0 137.74848 61.78816 137.74848 137.73312L921.26208 612.0448 668.73856 894.27968zM689.02912 634.74176 689.02912 761.46688l113.39264-126.72512L689.02912 634.74176zM176.16896 756.54144c0 35.46112 28.85632 64.31232 64.32256 64.31232l375.10656 0 0-259.53792 232.23296 0 0-549.85728c0-35.46112-28.85632-64.3072-64.32256-64.3072L240.49152-52.84864c-35.46624 0-64.32256 28.84608-64.32256 64.3072L176.16896 756.54144zM334.08 376.32l355.84 0c21.21216 0 38.4 17.18784 38.4 38.4s-17.18784 38.4-38.4 38.4l-355.84 0c-21.21216 0-38.4-17.18784-38.4-38.4S312.86784 376.32 334.08 376.32zM334.08 222.72l355.84 0c21.21216 0 38.4 17.18784 38.4 38.4s-17.18784 38.4-38.4 38.4l-355.84 0c-21.21216 0-38.4-17.18784-38.4-38.4S312.86784 222.72 334.08 222.72zM334.08 79.36l355.84 0c21.21216 0 38.4 17.18784 38.4 38.4s-17.18784 38.4-38.4 38.4l-355.84 0c-21.21216 0-38.4-17.18784-38.4-38.4S312.86784 79.36 334.08 79.36z"  horiz-adv-x="1024" />

    
    <glyph glyph-name="xinjian1" unicode="&#58920;" d="M1023.75-75.875 47.5-75.875 47.5 747.875l488.125 0 0-61.25L108.75 686.625l0-701.875 854.375 0L963.125 412.25l61.25 0L1024.375-75.875zM570.625 212.875l-56.875 116.25-116.25 56.875L751.25 739.75l42.5-42.5L501.25 402.25l56.875-28.75 28.75-56.875 293.125 293.125 42.5-42.5L570.625 212.875zM966.875 609.75l-173.125 173.125 22.5 22.5c22.5 22.5 53.125 36.875 85.625 36.875 32.5 0 63.125-12.5 85.625-36.875 24.375-24.375 36.875-55 36.875-87.5s-12.5-63.125-36.875-85.625L966.875 609.75zM885.625 776l75-75c1.875 6.25 1.875 10 1.875 16.25 0 16.25-6.25 32.5-18.125 42.5C930.625 776 906.25 782.25 885.625 776L885.625 776zM267.5 82.875l83.125 252.5 56.875-18.125-45-138.125 136.25 45 18.125-56.875L267.5 82.875z"  horiz-adv-x="1025" />

    
    <glyph glyph-name="wenjian2" unicode="&#59199;" d="M939.505888 435.911268 939.505888 435.911268 219.273738 435.911268c-26.757222 0-49.359735-17.273649-57.172393-41.11806l0 0-62.839956-191.09398 0 528.370452 0 0 300.064741 0 0 0 0.09032 0c0-65.459228 53.695083-118.431753 119.989768-118.431753l0 0 300.064741 0 0-118.454333 59.972304 0 0 118.454333c0 32.650584-26.870121 59.204587-59.972304 59.204587L519.338479 672.842514c-33.124763 0-59.994884 26.554002-59.994884 59.249746l0 0c0 32.695744-26.824961 59.204587-60.017464 59.204587l0 0L99.261389 791.296847c-33.079603 0-59.994884-26.508842-59.994884-59.204587l0-710.793738c0-32.695744 26.892701-59.204587 59.994884-59.204587l720.09667 0c26.779802 0 49.404895 17.273649 57.194972 41.140639l0.04516 0L999.387872 376.661521C999.387872 409.334686 972.63065 435.820948 939.505888 435.911268L939.505888 435.911268zM822.51925 21.275943 99.261389 21.275943 216.157707 376.661521l723.235281 0L822.51925 21.275943 822.51925 21.275943z"  horiz-adv-x="1024" />

    
    <glyph glyph-name="cai2" unicode="&#58894;" d="M991.744 516.096c0 41.984-41.984 77.824-48.128 77.824 11.776 6.144 17.92 30.208 17.92 48.128 0 41.984-35.84 66.048-77.824 77.824 6.144 11.776 11.776 24.064 11.776 41.984 0 66.048-48.128 101.888-150.016 101.888H445.44c-35.84 0-66.048-6.144-83.968-17.92-24.064-6.144-35.84-17.92-41.984-17.92s-11.776 6.144-24.064 11.776c-11.776 11.776-30.208 24.064-48.128 24.064H163.84c-59.904 0-90.112-35.84-96.256-96.256l-35.84-390.144c0-66.048 35.84-114.176 96.256-114.176h138.24c77.824 0 150.016-77.824 161.792-96.256 17.92-35.84 30.208-77.824 30.208-161.792 0-24.064 0-101.888 83.968-101.888 17.92 0 53.76 11.776 77.824 53.76 48.128 72.192 53.76 203.776 17.92 306.176h216.064c83.968 0 138.24 41.984 138.24 96.256 0 35.84-24.064 72.192-35.84 83.968 23.552 12.8 35.328 36.352 35.328 72.704z m-755.712 311.808c6.144 0 11.776-6.144 17.92-11.776s11.776-6.144 17.92-11.776v-498.176H128c-35.84 0-59.904 35.84-59.904 66.048l35.84 408.064c6.144 24.064 24.064 48.128 48.128 48.128h83.968v-0.512z m653.824-258.048c24.064 0 59.904-35.84 59.904-59.904 0-17.92-6.144-35.84-17.92-41.984-6.144-6.144-24.064-6.144-24.064-6.144v-35.84s11.776 0 24.064-11.776c17.92-11.776 17.92-41.984 17.92-41.984v-11.776c0-30.208-48.128-53.76-96.256-53.76h-275.968v-35.84c48.128-101.888 35.84-227.84 0-288.256-11.776-17.92-35.84-35.84-53.76-35.84s-35.84 6.144-35.84 53.76c0 96.256-6.144 138.24-24.064 180.224-11.776 30.208-77.824 96.256-156.16 119.808v480.256c11.776 6.144 35.84 24.064 53.76 30.208 17.92 11.776 48.128 17.92 59.904 17.92h306.176c77.824 0 108.032-30.208 108.032-66.048 0-17.92 0-30.208-17.92-35.84v-35.84c41.984 0 83.968-11.776 83.968-48.128 0-30.208-11.776-35.84-17.92-35.84v-35.84h6.144v-1.536z"  horiz-adv-x="1024" />

    
    <glyph glyph-name="huodong3" unicode="&#58984;" d="M284.27163 457.502c-6.049-1.527-12.189-2.873-18.552-3.793-76.514-11.248-145.319 25.835-153.685 82.816L389.10863 577.2c3.52-23.933-4.319-47.533-20.12-67.723 33.766 14.152 70.404 22.78 108.772 24.813 9.579 32.713 12.584 67.905 7.314 103.836C465.52163 771.345 341.64763 863.488 208.42663 843.935 75.21463 824.361-16.93737 700.517 2.61563 567.285 18.54763 458.736 103.73063 377.508 206.78763 361.688c19.604 36.709 45.995 69.17 77.484 95.814z m24.925 273.412c21.769 3.197 41.99-11.855 45.186-33.614 3.206-21.748-11.855-42-33.624-45.196-21.769-3.197-42 11.845-45.196 33.614-3.186 21.768 11.856 41.999 33.634 45.196z m-164.802-24.196c21.768 3.197 41.989-11.865 45.186-33.624 3.207-21.768-11.855-41.99-33.614-45.196-21.789-3.186-42 11.855-45.196 33.634-3.206 21.758 11.856 41.989 33.624 45.186zM805.86363 845.188c-133.919 14.081-253.879-83.089-267.99-216.998-3.56-33.907 0.111-66.894 9.61-97.514 103.856-16.61 191.173-81.966 238.099-171.66 121.062 2.448 224.281 94.6 237.259 218.181 14.101 133.93-83.058 253.9-216.978 267.991z m25.846-169.931c2.296 21.88 21.87 37.751 43.76 35.455 21.9-2.306 37.751-21.89 35.475-43.79-2.316-21.87-21.89-37.731-43.78-35.425-21.901 2.277-37.772 21.901-35.455 43.76z m-165.672 17.429c2.306 21.87 21.91 37.751 43.78 35.445 21.89-2.296 37.741-21.9 35.455-43.78-2.296-21.88-21.89-37.751-43.79-35.435-21.89 2.297-37.721 21.891-35.445 43.77z m98.575-239.757c-76.918 8.082-134.374 61.067-128.356 118.351l278.5-29.305c-6.018-57.253-73.266-97.129-150.144-89.046zM497.61163 494.049c-158.197 2.064-288.12-124.542-290.173-282.738-2.053-158.206 124.562-288.1 282.769-290.183 158.186-2.023 288.11 124.572 290.163 282.748 2.032 158.206-124.563 288.13-282.759 290.173z m95.925-149.841c25.845-0.314 46.491-21.546 46.197-47.391-0.344-25.845-21.566-46.531-47.421-46.198-25.835 0.344-46.531 21.556-46.157 47.391 0.334 25.876 21.536 46.542 47.381 46.198z m-195.695 2.549c25.845-0.313 46.511-21.556 46.198-47.421-0.354-25.845-21.556-46.511-47.411-46.167-25.855 0.334-46.531 21.546-46.197 47.391 0.333 25.845 21.565 46.531 47.41 46.197z m93.771-316.069c-90.868 1.163-163.8 56.981-162.92 124.613l328.987-4.269c-0.871-67.622-75.22-121.527-166.067-120.344z"  horiz-adv-x="1024" />

    
    <glyph glyph-name="wenjian3" unicode="&#58938;" d="M844.964906-6.980739H177.685353c-53.357232 0-96.92961 42.0937-98.356098 94.374414l-66.77073 435.732989v2.413979c0 53.499471 44.154639 97.023754 98.42773 97.023754h12.797468v55.392588c0 53.499471 44.13929 97.023754 98.392937 97.023754h200.169949c35.95284 0 90.110297-30.509874 119.816876-65.330938h258.314207c41.638329 0 137.806599-31.343869 142.68777-92.180445 38.872333-12.976546 66.927295-49.284473 66.927295-91.928713v-2.413979l-66.772776-435.732989c-1.425466-52.281737-44.99989-94.374414-98.355075-94.374414zM76.005556 527.55144l66.673516-435.092399v-2.41398c0-18.548448 15.703657-33.640168 35.006281-33.640168h667.279553c19.302625 0 35.007305 15.09172 35.007305 33.640168v2.41398l66.673515 435.092399c-1.086751 17.616216-16.361643 31.627325-34.981722 31.627325h-31.692816v52.642964c-1.559519 3.382027-10.277064 12.340049-29.477359 21.196764-19.729344 9.101285-39.759539 13.246699-50.018183 13.246699h-291.91856l-9.281387 15.07637c-15.347546 24.923646-60.446697 50.254567-76.931137 50.254568h-200.168925c-19.302625 0-35.007305-15.090697-35.007305-33.638122v-118.77822h-76.1831c-18.619056-0.001023-33.892925-14.013155-34.979676-31.628348zM45.231669 560.085414h928.566464v-61.32981H45.231669z"  horiz-adv-x="1024" />

    
    <glyph glyph-name="xuexi" unicode="&#59057;" d="M1634.655927-41.234891M964.841645 423.684838c-17.656125 0-31.980365-14.32424-31.980365-31.980365l0-319.80263c0-17.656125 14.32424-31.980365 31.980365-31.980365s31.980365 14.32424 31.980365 31.980365L996.822011 391.704472C996.822011 409.360598 982.497771 423.684838 964.841645 423.684838zM955.181635 533.950174c41.432645 12.169157 68.207451 47.761794 68.207451 90.65265 0 42.901089-26.774807 78.482469-68.207451 90.662883L535.544229 838.637548c-15.46932 4.549619-32.188096 4.559852-47.699372 0L68.208475 715.265706c-41.432645-12.180414-68.186985-47.77305-68.186985-90.662883s26.754341-78.482469 68.186985-90.65265l89.902566-26.431999 0-390.571417c0-17.457604 5.912663-34.155914 16.635889-47.012733 28.982078-34.739199 111.306039-93.025697 336.958358-93.025697 198.939935 0 291.632033 56.142671 329.192487 89.62218 15.511275 13.845333 24.40176 33.958416 24.40176 55.205323L865.299535 507.519198 955.181635 533.950174zM63.981197 624.602823c0 5.340635 1.603521 23.224957 22.25691 29.294187L505.875512 777.268852c1.895163 0.551562 3.851725 0.843204 5.809309 0.843204 1.978051 0 3.934612-0.291642 5.829775-0.843204l419.636383-123.371842c20.674878-6.079462 22.278399-23.953551 22.278399-29.294187 0-5.330402-1.603521-23.214724-22.278399-29.294187L517.513574 471.936795c-3.768837-1.103124-7.828292-1.11438-11.639085 0L86.23913 595.308637C65.584718 601.388099 63.981197 619.272421 63.981197 624.602823zM801.338804 121.735831c0-3.040243-1.103124-5.767354-3.018753-7.474228-24.755824-22.069645-102.249779-73.392544-286.614763-73.392544-212.868155 0-274.122241 53.601802-287.842731 70.050426-1.14508 1.364067-1.790786 3.560082-1.790786 6.027274L222.071771 488.70776l265.773086-78.128405c7.745405-2.279926 15.760962-3.435239 23.838941-3.435239 8.099469 0 16.115026 1.155313 23.860431 3.435239l265.794575 78.139661L801.338804 121.735831zM964.841645-21.394007c-17.656125 0-31.980365-14.32424-31.980365-31.980365l0-42.640146c0-17.666358 14.32424-31.980365 31.980365-31.980365s31.980365 14.314007 31.980365 31.980365l0 42.640146C996.822011-35.718247 982.497771-21.394007 964.841645-21.394007z"  horiz-adv-x="1024" />

    
    <glyph glyph-name="qita" unicode="&#58967;" d="M0 457.142857h438.857143V896H0v-438.857143z m73.142857-512H438.857143V310.857143H73.142857v-365.714286zM585.142857 310.857143v-438.857143h438.857143V310.857143H585.142857zM950.857143 822.857143H585.142857V457.142857h365.714286V822.857143z"  horiz-adv-x="1024" />

    
    <glyph glyph-name="yule3" unicode="&#58958;" d="M874.9 582.3c-0.8 2.4-21.1 57.4-76.3 109.7-32.4 30.7-70.3 54.1-112.5 69.5-52.4 19.1-111.6 26-176 20.3-5.7-0.5-10.7-4.2-12.9-9.5-2.2-5.3-1.3-11.4 2.4-15.8 2.1-2.5 203.2-243.8 206-413.7h-0.1c-4.9 34.5-15.6 67.8-31.8 99.1-38.4 74.3-103.5 129.3-183.2 154.8s-164.6 18.4-239-20c-74.3-38.4-129.3-103.5-154.8-183.2s-18.4-164.6 20-239c38.4-74.3 103.5-129.3 183.2-154.8 31.4-10 63.6-15 95.7-15 49.3 0 98.2 11.8 143.3 35 25.7 13.3 49.3 29.8 70.2 49.4 9.6-1.9 19.8-3 30.5-3 3 0 6 0.1 9 0.5 48.2 2.8 92.9 27.8 132.8 74.2 0.3 0.4 0.7 0.8 1 1.3 30 43.8 43.9 98.6 41.5 162.7-1.9 50.2-13.7 106.3-35.3 166.7-24.2 67.9-54.8 125.4-73.2 157.2 35.7-5.3 96-20.1 133.5-61.9 5-5.4 13.1-6.7 19.4-2.9 6.3 3.7 9.1 11.5 6.6 18.4zM525.1 46.4c-67.2-34.7-144-41.1-216.1-18.1s-130.9 72.7-165.6 140c-34.7 67.2-41.1 144-18.1 216.1s72.7 130.9 140 165.6c67.2 34.7 144 41.1 216.1 18.1s130.9-72.7 165.6-140c13.8-26.8 23.2-55.1 27.9-84.4-6.7-0.2-13.9-0.6-21.4-1.5-42.7-4.6-80.3-19.3-110.2-42.9-0.1 22.6-5.4 45.4-16.5 66.8-37.5 72.6-127 101.2-199.6 63.7s-101.1-127-63.7-199.5c26.3-50.9 78.2-80.2 131.9-80.2 22.8 0 46 5.3 67.6 16.5 10.6 5.4 20.2 12 28.8 19.4 2.9-25.4 14.9-48.1 28.6-70.4 0.7-1.2 1.7-2.3 2.7-3.3 5.3-4.9 24-21.1 52.2-32.9-15.4-12.7-32.2-23.7-50.2-33z m-76.2 147.6c-57.4-29.6-128.3-7-157.9 50.5-29.6 57.5-7 128.3 50.4 158 57.5 29.6 128.4 7 158-50.5 29.6-57.5 7-128.4-50.5-158z m237.7 468.3c-5.8 0-11.1-3-13.8-8s-2.5-11.1 0.6-15.9c0.5-0.8 51-78.7 86.2-177.4 20.5-57.5 31.8-110.5 33.6-157.5 2.2-57.1-9.8-105.4-35.6-143.5-34.1-39.5-71.3-60.6-110.7-62.9-42.1-2.4-80.5 17.8-101.4 36.4-25.1 41.4-38 73.2 1.4 127.6 27.3 28.4 63.9 45.3 108.9 50.3 34.7 3.9 61.6-1.2 61.8-1.2 4.4-0.9 8.9 0.2 12.4 2.9s5.7 6.8 6 11.2c2.7 43-7 93.7-28.8 150.7-17.2 44.9-42 93.9-73.7 145.8-35.1 57.5-70.4 105.1-91.3 131.9 48.1 1.2 92.6-5.4 132.5-19.9 38.1-13.8 72.3-34.8 101.7-62.3 13.7-12.9 25.1-26 34.4-38.3-58.5 28.5-120.6 30-124.2 30.1z"  horiz-adv-x="1024" />

    
    <glyph glyph-name="wenjian4" unicode="&#59112;" d="M790.666312 44.965809l167.808826 417.812723L231.313553 462.778532l-167.805228-417.812723L790.666312 44.965809 790.666312 44.965809zM175.378078 515.001925L63.508125 44.965809 63.508125 723.907886l251.709741 0 111.87295-104.452981 363.575496 0 0-104.452981L175.378078 515.001925 175.378078 515.001925z"  horiz-adv-x="1024" />

    
    </font>
</defs>
</svg>
